G75*
%MOIN*%
%OFA0B0*%
%FSLAX25Y25*%
%IPPOS*%
%LPD*%
%AMOC8*
5,1,8,0,0,1.08239X$1,22.5*
%
%ADD10C,0.01000*%
%ADD11R,0.06299X0.07087*%
%ADD12R,0.07087X0.06299*%
D10*
X0021800Y0011250D02*
X0171800Y0011250D01*
X0172283Y0011256D01*
X0172766Y0011273D01*
X0173249Y0011303D01*
X0173730Y0011343D01*
X0174211Y0011396D01*
X0174690Y0011460D01*
X0175167Y0011535D01*
X0175643Y0011623D01*
X0176116Y0011721D01*
X0176586Y0011831D01*
X0177054Y0011952D01*
X0177519Y0012085D01*
X0177980Y0012229D01*
X0178438Y0012384D01*
X0178892Y0012550D01*
X0179342Y0012727D01*
X0179787Y0012914D01*
X0180228Y0013113D01*
X0180664Y0013321D01*
X0181094Y0013541D01*
X0181520Y0013771D01*
X0181939Y0014011D01*
X0182353Y0014261D01*
X0182760Y0014521D01*
X0183161Y0014790D01*
X0183556Y0015070D01*
X0183943Y0015358D01*
X0184324Y0015657D01*
X0184697Y0015964D01*
X0185062Y0016280D01*
X0185420Y0016605D01*
X0185770Y0016938D01*
X0186112Y0017280D01*
X0186445Y0017630D01*
X0186770Y0017988D01*
X0187086Y0018353D01*
X0187393Y0018726D01*
X0187692Y0019107D01*
X0187980Y0019494D01*
X0188260Y0019889D01*
X0188529Y0020290D01*
X0188789Y0020697D01*
X0189039Y0021111D01*
X0189279Y0021530D01*
X0189509Y0021956D01*
X0189729Y0022386D01*
X0189937Y0022822D01*
X0190136Y0023263D01*
X0190323Y0023708D01*
X0190500Y0024158D01*
X0190666Y0024612D01*
X0190821Y0025070D01*
X0190965Y0025531D01*
X0191098Y0025996D01*
X0191219Y0026464D01*
X0191329Y0026934D01*
X0191427Y0027407D01*
X0191515Y0027883D01*
X0191590Y0028360D01*
X0191654Y0028839D01*
X0191707Y0029320D01*
X0191747Y0029801D01*
X0191777Y0030284D01*
X0191794Y0030767D01*
X0191800Y0031250D01*
X0191800Y0136250D01*
X0191793Y0136854D01*
X0191771Y0137458D01*
X0191734Y0138061D01*
X0191683Y0138663D01*
X0191618Y0139263D01*
X0191538Y0139862D01*
X0191443Y0140459D01*
X0191334Y0141053D01*
X0191211Y0141645D01*
X0191074Y0142233D01*
X0190922Y0142818D01*
X0190756Y0143399D01*
X0190576Y0143975D01*
X0190383Y0144548D01*
X0190175Y0145115D01*
X0189954Y0145677D01*
X0189720Y0146234D01*
X0189472Y0146785D01*
X0189211Y0147330D01*
X0188936Y0147868D01*
X0188649Y0148400D01*
X0188349Y0148924D01*
X0188037Y0149441D01*
X0187712Y0149950D01*
X0187375Y0150452D01*
X0187025Y0150945D01*
X0186664Y0151429D01*
X0186292Y0151905D01*
X0185908Y0152371D01*
X0185513Y0152828D01*
X0185107Y0153275D01*
X0184690Y0153713D01*
X0184263Y0154140D01*
X0183825Y0154557D01*
X0183378Y0154963D01*
X0182921Y0155358D01*
X0182455Y0155742D01*
X0181979Y0156114D01*
X0181495Y0156475D01*
X0181002Y0156825D01*
X0180500Y0157162D01*
X0179991Y0157487D01*
X0179474Y0157799D01*
X0178950Y0158099D01*
X0178418Y0158386D01*
X0177880Y0158661D01*
X0177335Y0158922D01*
X0176784Y0159170D01*
X0176227Y0159404D01*
X0175665Y0159625D01*
X0175098Y0159833D01*
X0174525Y0160026D01*
X0173949Y0160206D01*
X0173368Y0160372D01*
X0172783Y0160524D01*
X0172195Y0160661D01*
X0171603Y0160784D01*
X0171009Y0160893D01*
X0170412Y0160988D01*
X0169813Y0161068D01*
X0169213Y0161133D01*
X0168611Y0161184D01*
X0168008Y0161221D01*
X0167404Y0161243D01*
X0166800Y0161250D01*
X0026800Y0161250D01*
X0026196Y0161243D01*
X0025592Y0161221D01*
X0024989Y0161184D01*
X0024387Y0161133D01*
X0023787Y0161068D01*
X0023188Y0160988D01*
X0022591Y0160893D01*
X0021997Y0160784D01*
X0021405Y0160661D01*
X0020817Y0160524D01*
X0020232Y0160372D01*
X0019651Y0160206D01*
X0019075Y0160026D01*
X0018502Y0159833D01*
X0017935Y0159625D01*
X0017373Y0159404D01*
X0016816Y0159170D01*
X0016265Y0158922D01*
X0015720Y0158661D01*
X0015182Y0158386D01*
X0014650Y0158099D01*
X0014126Y0157799D01*
X0013609Y0157487D01*
X0013100Y0157162D01*
X0012598Y0156825D01*
X0012105Y0156475D01*
X0011621Y0156114D01*
X0011145Y0155742D01*
X0010679Y0155358D01*
X0010222Y0154963D01*
X0009775Y0154557D01*
X0009337Y0154140D01*
X0008910Y0153713D01*
X0008493Y0153275D01*
X0008087Y0152828D01*
X0007692Y0152371D01*
X0007308Y0151905D01*
X0006936Y0151429D01*
X0006575Y0150945D01*
X0006225Y0150452D01*
X0005888Y0149950D01*
X0005563Y0149441D01*
X0005251Y0148924D01*
X0004951Y0148400D01*
X0004664Y0147868D01*
X0004389Y0147330D01*
X0004128Y0146785D01*
X0003880Y0146234D01*
X0003646Y0145677D01*
X0003425Y0145115D01*
X0003217Y0144548D01*
X0003024Y0143975D01*
X0002844Y0143399D01*
X0002678Y0142818D01*
X0002526Y0142233D01*
X0002389Y0141645D01*
X0002266Y0141053D01*
X0002157Y0140459D01*
X0002062Y0139862D01*
X0001982Y0139263D01*
X0001917Y0138663D01*
X0001866Y0138061D01*
X0001829Y0137458D01*
X0001807Y0136854D01*
X0001800Y0136250D01*
X0001800Y0031250D01*
X0001806Y0030767D01*
X0001823Y0030284D01*
X0001853Y0029801D01*
X0001893Y0029320D01*
X0001946Y0028839D01*
X0002010Y0028360D01*
X0002085Y0027883D01*
X0002173Y0027407D01*
X0002271Y0026934D01*
X0002381Y0026464D01*
X0002502Y0025996D01*
X0002635Y0025531D01*
X0002779Y0025070D01*
X0002934Y0024612D01*
X0003100Y0024158D01*
X0003277Y0023708D01*
X0003464Y0023263D01*
X0003663Y0022822D01*
X0003871Y0022386D01*
X0004091Y0021956D01*
X0004321Y0021530D01*
X0004561Y0021111D01*
X0004811Y0020697D01*
X0005071Y0020290D01*
X0005340Y0019889D01*
X0005620Y0019494D01*
X0005908Y0019107D01*
X0006207Y0018726D01*
X0006514Y0018353D01*
X0006830Y0017988D01*
X0007155Y0017630D01*
X0007488Y0017280D01*
X0007830Y0016938D01*
X0008180Y0016605D01*
X0008538Y0016280D01*
X0008903Y0015964D01*
X0009276Y0015657D01*
X0009657Y0015358D01*
X0010044Y0015070D01*
X0010439Y0014790D01*
X0010840Y0014521D01*
X0011247Y0014261D01*
X0011661Y0014011D01*
X0012080Y0013771D01*
X0012506Y0013541D01*
X0012936Y0013321D01*
X0013372Y0013113D01*
X0013813Y0012914D01*
X0014258Y0012727D01*
X0014708Y0012550D01*
X0015162Y0012384D01*
X0015620Y0012229D01*
X0016081Y0012085D01*
X0016546Y0011952D01*
X0017014Y0011831D01*
X0017484Y0011721D01*
X0017957Y0011623D01*
X0018433Y0011535D01*
X0018910Y0011460D01*
X0019389Y0011396D01*
X0019870Y0011343D01*
X0020351Y0011303D01*
X0020834Y0011273D01*
X0021317Y0011256D01*
X0021800Y0011250D01*
D11*
X0071288Y0076250D03*
X0082312Y0076250D03*
D12*
X0116800Y0056762D03*
X0116800Y0045738D03*
M02*
