G75*
%MOIN*%
%OFA0B0*%
%FSLAX25Y25*%
%IPPOS*%
%LPD*%
%AMOC8*
5,1,8,0,0,1.08239X$1,22.5*
%
%ADD10C,0.01000*%
%ADD11C,0.00600*%
%ADD12C,0.00800*%
%ADD13C,0.01600*%
%ADD14C,0.01200*%
%ADD15C,0.00400*%
%ADD16C,0.00300*%
%ADD17C,0.00500*%
%ADD18R,0.40000X0.04000*%
D10*
X0021800Y0011250D02*
X0171800Y0011250D01*
X0172283Y0011256D01*
X0172766Y0011273D01*
X0173249Y0011303D01*
X0173730Y0011343D01*
X0174211Y0011396D01*
X0174690Y0011460D01*
X0175167Y0011535D01*
X0175643Y0011623D01*
X0176116Y0011721D01*
X0176586Y0011831D01*
X0177054Y0011952D01*
X0177519Y0012085D01*
X0177980Y0012229D01*
X0178438Y0012384D01*
X0178892Y0012550D01*
X0179342Y0012727D01*
X0179787Y0012914D01*
X0180228Y0013113D01*
X0180664Y0013321D01*
X0181094Y0013541D01*
X0181520Y0013771D01*
X0181939Y0014011D01*
X0182353Y0014261D01*
X0182760Y0014521D01*
X0183161Y0014790D01*
X0183556Y0015070D01*
X0183943Y0015358D01*
X0184324Y0015657D01*
X0184697Y0015964D01*
X0185062Y0016280D01*
X0185420Y0016605D01*
X0185770Y0016938D01*
X0186112Y0017280D01*
X0186445Y0017630D01*
X0186770Y0017988D01*
X0187086Y0018353D01*
X0187393Y0018726D01*
X0187692Y0019107D01*
X0187980Y0019494D01*
X0188260Y0019889D01*
X0188529Y0020290D01*
X0188789Y0020697D01*
X0189039Y0021111D01*
X0189279Y0021530D01*
X0189509Y0021956D01*
X0189729Y0022386D01*
X0189937Y0022822D01*
X0190136Y0023263D01*
X0190323Y0023708D01*
X0190500Y0024158D01*
X0190666Y0024612D01*
X0190821Y0025070D01*
X0190965Y0025531D01*
X0191098Y0025996D01*
X0191219Y0026464D01*
X0191329Y0026934D01*
X0191427Y0027407D01*
X0191515Y0027883D01*
X0191590Y0028360D01*
X0191654Y0028839D01*
X0191707Y0029320D01*
X0191747Y0029801D01*
X0191777Y0030284D01*
X0191794Y0030767D01*
X0191800Y0031250D01*
X0191800Y0136250D01*
X0191793Y0136854D01*
X0191771Y0137458D01*
X0191734Y0138061D01*
X0191683Y0138663D01*
X0191618Y0139263D01*
X0191538Y0139862D01*
X0191443Y0140459D01*
X0191334Y0141053D01*
X0191211Y0141645D01*
X0191074Y0142233D01*
X0190922Y0142818D01*
X0190756Y0143399D01*
X0190576Y0143975D01*
X0190383Y0144548D01*
X0190175Y0145115D01*
X0189954Y0145677D01*
X0189720Y0146234D01*
X0189472Y0146785D01*
X0189211Y0147330D01*
X0188936Y0147868D01*
X0188649Y0148400D01*
X0188349Y0148924D01*
X0188037Y0149441D01*
X0187712Y0149950D01*
X0187375Y0150452D01*
X0187025Y0150945D01*
X0186664Y0151429D01*
X0186292Y0151905D01*
X0185908Y0152371D01*
X0185513Y0152828D01*
X0185107Y0153275D01*
X0184690Y0153713D01*
X0184263Y0154140D01*
X0183825Y0154557D01*
X0183378Y0154963D01*
X0182921Y0155358D01*
X0182455Y0155742D01*
X0181979Y0156114D01*
X0181495Y0156475D01*
X0181002Y0156825D01*
X0180500Y0157162D01*
X0179991Y0157487D01*
X0179474Y0157799D01*
X0178950Y0158099D01*
X0178418Y0158386D01*
X0177880Y0158661D01*
X0177335Y0158922D01*
X0176784Y0159170D01*
X0176227Y0159404D01*
X0175665Y0159625D01*
X0175098Y0159833D01*
X0174525Y0160026D01*
X0173949Y0160206D01*
X0173368Y0160372D01*
X0172783Y0160524D01*
X0172195Y0160661D01*
X0171603Y0160784D01*
X0171009Y0160893D01*
X0170412Y0160988D01*
X0169813Y0161068D01*
X0169213Y0161133D01*
X0168611Y0161184D01*
X0168008Y0161221D01*
X0167404Y0161243D01*
X0166800Y0161250D01*
X0026800Y0161250D01*
X0026196Y0161243D01*
X0025592Y0161221D01*
X0024989Y0161184D01*
X0024387Y0161133D01*
X0023787Y0161068D01*
X0023188Y0160988D01*
X0022591Y0160893D01*
X0021997Y0160784D01*
X0021405Y0160661D01*
X0020817Y0160524D01*
X0020232Y0160372D01*
X0019651Y0160206D01*
X0019075Y0160026D01*
X0018502Y0159833D01*
X0017935Y0159625D01*
X0017373Y0159404D01*
X0016816Y0159170D01*
X0016265Y0158922D01*
X0015720Y0158661D01*
X0015182Y0158386D01*
X0014650Y0158099D01*
X0014126Y0157799D01*
X0013609Y0157487D01*
X0013100Y0157162D01*
X0012598Y0156825D01*
X0012105Y0156475D01*
X0011621Y0156114D01*
X0011145Y0155742D01*
X0010679Y0155358D01*
X0010222Y0154963D01*
X0009775Y0154557D01*
X0009337Y0154140D01*
X0008910Y0153713D01*
X0008493Y0153275D01*
X0008087Y0152828D01*
X0007692Y0152371D01*
X0007308Y0151905D01*
X0006936Y0151429D01*
X0006575Y0150945D01*
X0006225Y0150452D01*
X0005888Y0149950D01*
X0005563Y0149441D01*
X0005251Y0148924D01*
X0004951Y0148400D01*
X0004664Y0147868D01*
X0004389Y0147330D01*
X0004128Y0146785D01*
X0003880Y0146234D01*
X0003646Y0145677D01*
X0003425Y0145115D01*
X0003217Y0144548D01*
X0003024Y0143975D01*
X0002844Y0143399D01*
X0002678Y0142818D01*
X0002526Y0142233D01*
X0002389Y0141645D01*
X0002266Y0141053D01*
X0002157Y0140459D01*
X0002062Y0139862D01*
X0001982Y0139263D01*
X0001917Y0138663D01*
X0001866Y0138061D01*
X0001829Y0137458D01*
X0001807Y0136854D01*
X0001800Y0136250D01*
X0001800Y0031250D01*
X0001806Y0030767D01*
X0001823Y0030284D01*
X0001853Y0029801D01*
X0001893Y0029320D01*
X0001946Y0028839D01*
X0002010Y0028360D01*
X0002085Y0027883D01*
X0002173Y0027407D01*
X0002271Y0026934D01*
X0002381Y0026464D01*
X0002502Y0025996D01*
X0002635Y0025531D01*
X0002779Y0025070D01*
X0002934Y0024612D01*
X0003100Y0024158D01*
X0003277Y0023708D01*
X0003464Y0023263D01*
X0003663Y0022822D01*
X0003871Y0022386D01*
X0004091Y0021956D01*
X0004321Y0021530D01*
X0004561Y0021111D01*
X0004811Y0020697D01*
X0005071Y0020290D01*
X0005340Y0019889D01*
X0005620Y0019494D01*
X0005908Y0019107D01*
X0006207Y0018726D01*
X0006514Y0018353D01*
X0006830Y0017988D01*
X0007155Y0017630D01*
X0007488Y0017280D01*
X0007830Y0016938D01*
X0008180Y0016605D01*
X0008538Y0016280D01*
X0008903Y0015964D01*
X0009276Y0015657D01*
X0009657Y0015358D01*
X0010044Y0015070D01*
X0010439Y0014790D01*
X0010840Y0014521D01*
X0011247Y0014261D01*
X0011661Y0014011D01*
X0012080Y0013771D01*
X0012506Y0013541D01*
X0012936Y0013321D01*
X0013372Y0013113D01*
X0013813Y0012914D01*
X0014258Y0012727D01*
X0014708Y0012550D01*
X0015162Y0012384D01*
X0015620Y0012229D01*
X0016081Y0012085D01*
X0016546Y0011952D01*
X0017014Y0011831D01*
X0017484Y0011721D01*
X0017957Y0011623D01*
X0018433Y0011535D01*
X0018910Y0011460D01*
X0019389Y0011396D01*
X0019870Y0011343D01*
X0020351Y0011303D01*
X0020834Y0011273D01*
X0021317Y0011256D01*
X0021800Y0011250D01*
D11*
X0073417Y0026253D02*
X0078354Y0026253D01*
X0075886Y0028722D02*
X0075886Y0023784D01*
X0113417Y0026253D02*
X0118354Y0026253D01*
X0137100Y0146550D02*
X0137100Y0149953D01*
X0137100Y0151550D02*
X0139369Y0153819D01*
X0139369Y0154386D01*
X0138801Y0154953D01*
X0137667Y0154953D01*
X0137100Y0154386D01*
X0137100Y0151550D02*
X0139369Y0151550D01*
X0140783Y0152117D02*
X0143052Y0154386D01*
X0143052Y0152117D01*
X0142485Y0151550D01*
X0141350Y0151550D01*
X0140783Y0152117D01*
X0140783Y0154386D01*
X0141350Y0154953D01*
X0142485Y0154953D01*
X0143052Y0154386D01*
X0144466Y0153819D02*
X0145601Y0154953D01*
X0145601Y0151550D01*
X0146735Y0151550D02*
X0144466Y0151550D01*
X0144466Y0148819D02*
X0144466Y0146550D01*
X0144466Y0147684D02*
X0145601Y0148819D01*
X0146168Y0148819D01*
X0147536Y0149953D02*
X0148103Y0149953D01*
X0148103Y0146550D01*
X0147536Y0146550D02*
X0148670Y0146550D01*
X0148717Y0151550D02*
X0149851Y0151550D01*
X0150418Y0152117D01*
X0150418Y0152684D01*
X0149851Y0153251D01*
X0148149Y0153251D01*
X0148149Y0152117D01*
X0148717Y0151550D01*
X0148149Y0153251D02*
X0149284Y0154386D01*
X0150418Y0154953D01*
X0151833Y0153251D02*
X0154101Y0153251D01*
X0155516Y0152117D02*
X0156083Y0151550D01*
X0157217Y0151550D01*
X0157784Y0152117D01*
X0157784Y0154386D01*
X0155516Y0152117D01*
X0155516Y0154386D01*
X0156083Y0154953D01*
X0157217Y0154953D01*
X0157784Y0154386D01*
X0159199Y0154386D02*
X0159766Y0154953D01*
X0160900Y0154953D01*
X0161467Y0154386D01*
X0161467Y0153819D01*
X0159199Y0151550D01*
X0161467Y0151550D01*
X0161040Y0149953D02*
X0161040Y0146550D01*
X0159626Y0147117D02*
X0159626Y0148251D01*
X0159059Y0148819D01*
X0157924Y0148819D01*
X0157357Y0148251D01*
X0157357Y0147117D01*
X0157924Y0146550D01*
X0159059Y0146550D01*
X0159626Y0147117D01*
X0161040Y0148251D02*
X0161608Y0148819D01*
X0162742Y0148819D01*
X0163309Y0148251D01*
X0163309Y0146550D01*
X0164724Y0146550D02*
X0164724Y0148819D01*
X0165858Y0148819D02*
X0166425Y0148819D01*
X0165858Y0148819D02*
X0164724Y0147684D01*
X0167793Y0146550D02*
X0168927Y0146550D01*
X0168360Y0146550D02*
X0168360Y0148819D01*
X0167793Y0148819D01*
X0168360Y0149953D02*
X0168360Y0150520D01*
X0168834Y0151550D02*
X0166565Y0151550D01*
X0167699Y0151550D02*
X0167699Y0154953D01*
X0166565Y0153819D01*
X0165151Y0153251D02*
X0162882Y0153251D01*
X0170248Y0152117D02*
X0172517Y0154386D01*
X0172517Y0152117D01*
X0171950Y0151550D01*
X0170815Y0151550D01*
X0170248Y0152117D01*
X0170248Y0154386D01*
X0170815Y0154953D01*
X0171950Y0154953D01*
X0172517Y0154386D01*
X0171950Y0148819D02*
X0170248Y0148819D01*
X0170248Y0146550D01*
X0172517Y0146550D02*
X0172517Y0148251D01*
X0171950Y0148819D01*
X0173931Y0148251D02*
X0173931Y0147117D01*
X0174499Y0146550D01*
X0176200Y0146550D01*
X0176200Y0145983D02*
X0176200Y0148819D01*
X0174499Y0148819D01*
X0173931Y0148251D01*
X0175066Y0145416D02*
X0175633Y0145416D01*
X0176200Y0145983D01*
X0155943Y0146550D02*
X0155943Y0149953D01*
X0154808Y0148819D01*
X0153674Y0149953D01*
X0153674Y0146550D01*
X0143052Y0146550D02*
X0141350Y0146550D01*
X0140783Y0147117D01*
X0141350Y0147684D01*
X0143052Y0147684D01*
X0143052Y0148251D02*
X0143052Y0146550D01*
X0143052Y0148251D02*
X0142485Y0148819D01*
X0141350Y0148819D01*
X0139369Y0149953D02*
X0137100Y0147684D01*
X0137667Y0148251D02*
X0139369Y0146550D01*
D12*
X0125934Y0151351D02*
X0124733Y0150150D01*
X0122331Y0150150D01*
X0121130Y0151351D01*
X0125934Y0156155D01*
X0125934Y0151351D01*
X0121130Y0151351D02*
X0121130Y0156155D01*
X0122331Y0157356D01*
X0124733Y0157356D01*
X0125934Y0156155D01*
X0118568Y0150150D02*
X0113764Y0150150D01*
X0116166Y0150150D02*
X0116166Y0157356D01*
X0113764Y0154954D01*
X0111202Y0154954D02*
X0108800Y0150150D01*
X0106398Y0154954D01*
X0096469Y0154954D02*
X0096469Y0150150D01*
X0092866Y0150150D01*
X0091665Y0151351D01*
X0091665Y0154954D01*
X0089103Y0154954D02*
X0085500Y0154954D01*
X0084299Y0153753D01*
X0084299Y0151351D01*
X0085500Y0150150D01*
X0089103Y0150150D01*
X0089103Y0148949D02*
X0089103Y0154954D01*
X0081737Y0153753D02*
X0081737Y0150150D01*
X0081737Y0153753D02*
X0080536Y0154954D01*
X0076933Y0154954D01*
X0076933Y0150150D01*
X0074370Y0152552D02*
X0069566Y0152552D01*
X0069566Y0151351D02*
X0069566Y0153753D01*
X0070767Y0154954D01*
X0073169Y0154954D01*
X0074370Y0153753D01*
X0074370Y0152552D01*
X0073169Y0150150D02*
X0070767Y0150150D01*
X0069566Y0151351D01*
X0064602Y0150150D02*
X0064602Y0157356D01*
X0062200Y0157356D02*
X0067004Y0157356D01*
X0086701Y0147748D02*
X0087902Y0147748D01*
X0089103Y0148949D01*
X0036800Y0133750D02*
X0036800Y0128750D01*
X0034300Y0126250D01*
X0029300Y0126250D01*
X0026800Y0128750D01*
X0024300Y0126250D01*
X0019300Y0126250D01*
X0016800Y0128750D01*
X0014300Y0126250D01*
X0009300Y0126250D01*
X0006800Y0128750D01*
X0006800Y0133750D01*
X0009300Y0136250D01*
X0014300Y0136250D01*
X0016800Y0133750D01*
X0019300Y0136250D01*
X0024300Y0136250D01*
X0026800Y0133750D01*
X0029300Y0136250D01*
X0034300Y0136250D01*
X0036800Y0133750D01*
X0034300Y0121250D02*
X0029300Y0121250D01*
X0026800Y0118750D01*
X0024300Y0121250D01*
X0019300Y0121250D01*
X0016800Y0118750D01*
X0014300Y0121250D01*
X0009300Y0121250D01*
X0006800Y0118750D01*
X0006800Y0113750D01*
X0009300Y0111250D01*
X0014300Y0111250D01*
X0016800Y0113750D01*
X0019300Y0111250D01*
X0024300Y0111250D01*
X0026800Y0113750D01*
X0029300Y0111250D01*
X0034300Y0111250D01*
X0036800Y0113750D01*
X0036800Y0118750D01*
X0034300Y0121250D01*
X0034300Y0106250D02*
X0029300Y0106250D01*
X0026800Y0103750D01*
X0026800Y0098750D01*
X0029300Y0096250D01*
X0026800Y0093750D01*
X0026800Y0088750D01*
X0029300Y0086250D01*
X0026800Y0083750D01*
X0026800Y0078750D01*
X0029300Y0076250D01*
X0026800Y0073750D01*
X0026800Y0068750D01*
X0029300Y0066250D01*
X0034300Y0066250D01*
X0036800Y0068750D01*
X0036800Y0073750D01*
X0034300Y0076250D01*
X0036800Y0078750D01*
X0036800Y0083750D01*
X0034300Y0086250D01*
X0036800Y0088750D01*
X0036800Y0093750D01*
X0034300Y0096250D01*
X0036800Y0098750D01*
X0036800Y0103750D01*
X0034300Y0106250D01*
X0021800Y0103750D02*
X0021800Y0098750D01*
X0019300Y0096250D01*
X0021800Y0093750D01*
X0021800Y0088750D01*
X0019300Y0086250D01*
X0021800Y0083750D01*
X0021800Y0078750D01*
X0019300Y0076250D01*
X0021800Y0073750D01*
X0021800Y0068750D01*
X0019300Y0066250D01*
X0014300Y0066250D01*
X0011800Y0068750D01*
X0011800Y0073750D01*
X0014300Y0076250D01*
X0011800Y0078750D01*
X0011800Y0083750D01*
X0014300Y0086250D01*
X0011800Y0088750D01*
X0011800Y0093750D01*
X0014300Y0096250D01*
X0011800Y0098750D01*
X0011800Y0103750D01*
X0014300Y0106250D01*
X0019300Y0106250D01*
X0021800Y0103750D01*
X0001800Y0058250D02*
X0041800Y0058250D01*
X0041800Y0054250D01*
X0001800Y0054250D01*
X0001800Y0058250D01*
X0001800Y0054250D02*
X0001800Y0044750D01*
X0001799Y0044635D01*
X0001802Y0044520D01*
X0001809Y0044405D01*
X0001820Y0044290D01*
X0001835Y0044176D01*
X0001853Y0044062D01*
X0001875Y0043949D01*
X0001901Y0043836D01*
X0001931Y0043725D01*
X0001965Y0043615D01*
X0002002Y0043505D01*
X0002043Y0043398D01*
X0002088Y0043291D01*
X0002136Y0043187D01*
X0002188Y0043083D01*
X0002243Y0042982D01*
X0002302Y0042883D01*
X0002363Y0042785D01*
X0002429Y0042690D01*
X0002497Y0042597D01*
X0002568Y0042507D01*
X0002643Y0042419D01*
X0002720Y0042333D01*
X0002800Y0042250D01*
X0002883Y0042170D01*
X0002969Y0042093D01*
X0003057Y0042018D01*
X0003147Y0041947D01*
X0003240Y0041879D01*
X0003335Y0041813D01*
X0003433Y0041752D01*
X0003532Y0041693D01*
X0003633Y0041638D01*
X0003737Y0041586D01*
X0003841Y0041538D01*
X0003948Y0041493D01*
X0004055Y0041452D01*
X0004165Y0041415D01*
X0004275Y0041381D01*
X0004386Y0041351D01*
X0004499Y0041325D01*
X0004612Y0041303D01*
X0004726Y0041285D01*
X0004840Y0041270D01*
X0004955Y0041259D01*
X0005070Y0041252D01*
X0005185Y0041249D01*
X0005300Y0041250D01*
X0006800Y0041250D01*
X0036800Y0041250D02*
X0038300Y0041250D01*
X0038415Y0041249D01*
X0038530Y0041252D01*
X0038645Y0041259D01*
X0038760Y0041270D01*
X0038874Y0041285D01*
X0038988Y0041303D01*
X0039101Y0041325D01*
X0039214Y0041351D01*
X0039325Y0041381D01*
X0039435Y0041415D01*
X0039545Y0041452D01*
X0039652Y0041493D01*
X0039759Y0041538D01*
X0039863Y0041586D01*
X0039967Y0041638D01*
X0040068Y0041693D01*
X0040167Y0041752D01*
X0040265Y0041813D01*
X0040360Y0041879D01*
X0040453Y0041947D01*
X0040543Y0042018D01*
X0040631Y0042093D01*
X0040717Y0042170D01*
X0040800Y0042250D01*
X0040880Y0042333D01*
X0040957Y0042419D01*
X0041032Y0042507D01*
X0041103Y0042597D01*
X0041171Y0042690D01*
X0041237Y0042785D01*
X0041298Y0042883D01*
X0041357Y0042982D01*
X0041412Y0043083D01*
X0041464Y0043187D01*
X0041512Y0043291D01*
X0041557Y0043398D01*
X0041598Y0043505D01*
X0041635Y0043615D01*
X0041669Y0043725D01*
X0041699Y0043836D01*
X0041725Y0043949D01*
X0041747Y0044062D01*
X0041765Y0044176D01*
X0041780Y0044290D01*
X0041791Y0044405D01*
X0041798Y0044520D01*
X0041801Y0044635D01*
X0041800Y0044750D01*
X0041800Y0054250D01*
X0151800Y0054250D02*
X0151800Y0044750D01*
X0151799Y0044635D01*
X0151802Y0044520D01*
X0151809Y0044405D01*
X0151820Y0044290D01*
X0151835Y0044176D01*
X0151853Y0044062D01*
X0151875Y0043949D01*
X0151901Y0043836D01*
X0151931Y0043725D01*
X0151965Y0043615D01*
X0152002Y0043505D01*
X0152043Y0043398D01*
X0152088Y0043291D01*
X0152136Y0043187D01*
X0152188Y0043083D01*
X0152243Y0042982D01*
X0152302Y0042883D01*
X0152363Y0042785D01*
X0152429Y0042690D01*
X0152497Y0042597D01*
X0152568Y0042507D01*
X0152643Y0042419D01*
X0152720Y0042333D01*
X0152800Y0042250D01*
X0152883Y0042170D01*
X0152969Y0042093D01*
X0153057Y0042018D01*
X0153147Y0041947D01*
X0153240Y0041879D01*
X0153335Y0041813D01*
X0153433Y0041752D01*
X0153532Y0041693D01*
X0153633Y0041638D01*
X0153737Y0041586D01*
X0153841Y0041538D01*
X0153948Y0041493D01*
X0154055Y0041452D01*
X0154165Y0041415D01*
X0154275Y0041381D01*
X0154386Y0041351D01*
X0154499Y0041325D01*
X0154612Y0041303D01*
X0154726Y0041285D01*
X0154840Y0041270D01*
X0154955Y0041259D01*
X0155070Y0041252D01*
X0155185Y0041249D01*
X0155300Y0041250D01*
X0156800Y0041250D01*
X0151800Y0054250D02*
X0151800Y0058250D01*
X0191800Y0058250D01*
X0191800Y0054250D01*
X0151800Y0054250D01*
X0159300Y0066250D02*
X0164300Y0066250D01*
X0166800Y0068750D01*
X0169300Y0066250D01*
X0174300Y0066250D01*
X0176800Y0068750D01*
X0179300Y0066250D01*
X0184300Y0066250D01*
X0186800Y0068750D01*
X0186800Y0073750D01*
X0184300Y0076250D01*
X0179300Y0076250D01*
X0176800Y0073750D01*
X0174300Y0076250D01*
X0169300Y0076250D01*
X0166800Y0073750D01*
X0164300Y0076250D01*
X0159300Y0076250D01*
X0156800Y0073750D01*
X0156800Y0068750D01*
X0159300Y0066250D01*
X0159300Y0081250D02*
X0164300Y0081250D01*
X0166800Y0083750D01*
X0169300Y0081250D01*
X0174300Y0081250D01*
X0176800Y0083750D01*
X0179300Y0081250D01*
X0184300Y0081250D01*
X0186800Y0083750D01*
X0186800Y0088750D01*
X0184300Y0091250D01*
X0179300Y0091250D01*
X0176800Y0088750D01*
X0174300Y0091250D01*
X0169300Y0091250D01*
X0166800Y0088750D01*
X0164300Y0091250D01*
X0159300Y0091250D01*
X0156800Y0088750D01*
X0156800Y0083750D01*
X0159300Y0081250D01*
X0159300Y0096250D02*
X0164300Y0096250D01*
X0166800Y0098750D01*
X0169300Y0096250D01*
X0174300Y0096250D01*
X0176800Y0098750D01*
X0179300Y0096250D01*
X0184300Y0096250D01*
X0186800Y0098750D01*
X0186800Y0103750D01*
X0184300Y0106250D01*
X0179300Y0106250D01*
X0176800Y0103750D01*
X0174300Y0106250D01*
X0169300Y0106250D01*
X0166800Y0103750D01*
X0164300Y0106250D01*
X0159300Y0106250D01*
X0156800Y0103750D01*
X0156800Y0098750D01*
X0159300Y0096250D01*
X0159300Y0111250D02*
X0164300Y0111250D01*
X0166800Y0113750D01*
X0169300Y0111250D01*
X0174300Y0111250D01*
X0176800Y0113750D01*
X0179300Y0111250D01*
X0184300Y0111250D01*
X0186800Y0113750D01*
X0186800Y0118750D01*
X0184300Y0121250D01*
X0179300Y0121250D01*
X0176800Y0118750D01*
X0174300Y0121250D01*
X0169300Y0121250D01*
X0166800Y0118750D01*
X0164300Y0121250D01*
X0159300Y0121250D01*
X0156800Y0118750D01*
X0156800Y0113750D01*
X0159300Y0111250D01*
X0159300Y0126250D02*
X0164300Y0126250D01*
X0166800Y0128750D01*
X0169300Y0126250D01*
X0174300Y0126250D01*
X0176800Y0128750D01*
X0179300Y0126250D01*
X0184300Y0126250D01*
X0186800Y0128750D01*
X0186800Y0133750D01*
X0184300Y0136250D01*
X0179300Y0136250D01*
X0176800Y0133750D01*
X0174300Y0136250D01*
X0169300Y0136250D01*
X0166800Y0133750D01*
X0164300Y0136250D01*
X0159300Y0136250D01*
X0156800Y0133750D01*
X0156800Y0128750D01*
X0159300Y0126250D01*
X0191800Y0054250D02*
X0191800Y0044750D01*
X0191801Y0044635D01*
X0191798Y0044520D01*
X0191791Y0044405D01*
X0191780Y0044290D01*
X0191765Y0044176D01*
X0191747Y0044062D01*
X0191725Y0043949D01*
X0191699Y0043836D01*
X0191669Y0043725D01*
X0191635Y0043615D01*
X0191598Y0043505D01*
X0191557Y0043398D01*
X0191512Y0043291D01*
X0191464Y0043187D01*
X0191412Y0043083D01*
X0191357Y0042982D01*
X0191298Y0042883D01*
X0191237Y0042785D01*
X0191171Y0042690D01*
X0191103Y0042597D01*
X0191032Y0042507D01*
X0190957Y0042419D01*
X0190880Y0042333D01*
X0190800Y0042250D01*
X0190717Y0042170D01*
X0190631Y0042093D01*
X0190543Y0042018D01*
X0190453Y0041947D01*
X0190360Y0041879D01*
X0190265Y0041813D01*
X0190167Y0041752D01*
X0190068Y0041693D01*
X0189967Y0041638D01*
X0189863Y0041586D01*
X0189759Y0041538D01*
X0189652Y0041493D01*
X0189545Y0041452D01*
X0189435Y0041415D01*
X0189325Y0041381D01*
X0189214Y0041351D01*
X0189101Y0041325D01*
X0188988Y0041303D01*
X0188874Y0041285D01*
X0188760Y0041270D01*
X0188645Y0041259D01*
X0188530Y0041252D01*
X0188415Y0041249D01*
X0188300Y0041250D01*
X0186800Y0041250D01*
D13*
X0111800Y0036250D02*
X0111800Y0016250D01*
X0081800Y0016250D01*
X0081800Y0036250D01*
X0111800Y0036250D01*
D14*
X0011800Y0031250D02*
X0011800Y0016250D01*
X0036800Y0016250D01*
X0036940Y0016252D01*
X0037080Y0016258D01*
X0037220Y0016268D01*
X0037360Y0016281D01*
X0037499Y0016299D01*
X0037638Y0016321D01*
X0037775Y0016346D01*
X0037913Y0016375D01*
X0038049Y0016408D01*
X0038184Y0016445D01*
X0038318Y0016486D01*
X0038451Y0016531D01*
X0038583Y0016579D01*
X0038713Y0016631D01*
X0038842Y0016686D01*
X0038969Y0016745D01*
X0039095Y0016808D01*
X0039219Y0016874D01*
X0039340Y0016943D01*
X0039460Y0017016D01*
X0039578Y0017093D01*
X0039693Y0017172D01*
X0039807Y0017255D01*
X0039917Y0017341D01*
X0040026Y0017430D01*
X0040132Y0017522D01*
X0040235Y0017617D01*
X0040336Y0017714D01*
X0040433Y0017815D01*
X0040528Y0017918D01*
X0040620Y0018024D01*
X0040709Y0018133D01*
X0040795Y0018243D01*
X0040878Y0018357D01*
X0040957Y0018472D01*
X0041034Y0018590D01*
X0041107Y0018710D01*
X0041176Y0018831D01*
X0041242Y0018955D01*
X0041305Y0019081D01*
X0041364Y0019208D01*
X0041419Y0019337D01*
X0041471Y0019467D01*
X0041519Y0019599D01*
X0041564Y0019732D01*
X0041605Y0019866D01*
X0041642Y0020001D01*
X0041675Y0020137D01*
X0041704Y0020275D01*
X0041729Y0020412D01*
X0041751Y0020551D01*
X0041769Y0020690D01*
X0041782Y0020830D01*
X0041792Y0020970D01*
X0041798Y0021110D01*
X0041800Y0021250D01*
X0041800Y0031250D01*
X0041798Y0031390D01*
X0041792Y0031530D01*
X0041782Y0031670D01*
X0041769Y0031810D01*
X0041751Y0031949D01*
X0041729Y0032088D01*
X0041704Y0032225D01*
X0041675Y0032363D01*
X0041642Y0032499D01*
X0041605Y0032634D01*
X0041564Y0032768D01*
X0041519Y0032901D01*
X0041471Y0033033D01*
X0041419Y0033163D01*
X0041364Y0033292D01*
X0041305Y0033419D01*
X0041242Y0033545D01*
X0041176Y0033669D01*
X0041107Y0033790D01*
X0041034Y0033910D01*
X0040957Y0034028D01*
X0040878Y0034143D01*
X0040795Y0034257D01*
X0040709Y0034367D01*
X0040620Y0034476D01*
X0040528Y0034582D01*
X0040433Y0034685D01*
X0040336Y0034786D01*
X0040235Y0034883D01*
X0040132Y0034978D01*
X0040026Y0035070D01*
X0039917Y0035159D01*
X0039807Y0035245D01*
X0039693Y0035328D01*
X0039578Y0035407D01*
X0039460Y0035484D01*
X0039340Y0035557D01*
X0039219Y0035626D01*
X0039095Y0035692D01*
X0038969Y0035755D01*
X0038842Y0035814D01*
X0038713Y0035869D01*
X0038583Y0035921D01*
X0038451Y0035969D01*
X0038318Y0036014D01*
X0038184Y0036055D01*
X0038049Y0036092D01*
X0037913Y0036125D01*
X0037775Y0036154D01*
X0037638Y0036179D01*
X0037499Y0036201D01*
X0037360Y0036219D01*
X0037220Y0036232D01*
X0037080Y0036242D01*
X0036940Y0036248D01*
X0036800Y0036250D01*
X0016800Y0036250D01*
X0016660Y0036248D01*
X0016520Y0036242D01*
X0016380Y0036232D01*
X0016240Y0036219D01*
X0016101Y0036201D01*
X0015962Y0036179D01*
X0015825Y0036154D01*
X0015687Y0036125D01*
X0015551Y0036092D01*
X0015416Y0036055D01*
X0015282Y0036014D01*
X0015149Y0035969D01*
X0015017Y0035921D01*
X0014887Y0035869D01*
X0014758Y0035814D01*
X0014631Y0035755D01*
X0014505Y0035692D01*
X0014381Y0035626D01*
X0014260Y0035557D01*
X0014140Y0035484D01*
X0014022Y0035407D01*
X0013907Y0035328D01*
X0013793Y0035245D01*
X0013683Y0035159D01*
X0013574Y0035070D01*
X0013468Y0034978D01*
X0013365Y0034883D01*
X0013264Y0034786D01*
X0013167Y0034685D01*
X0013072Y0034582D01*
X0012980Y0034476D01*
X0012891Y0034367D01*
X0012805Y0034257D01*
X0012722Y0034143D01*
X0012643Y0034028D01*
X0012566Y0033910D01*
X0012493Y0033790D01*
X0012424Y0033669D01*
X0012358Y0033545D01*
X0012295Y0033419D01*
X0012236Y0033292D01*
X0012181Y0033163D01*
X0012129Y0033033D01*
X0012081Y0032901D01*
X0012036Y0032768D01*
X0011995Y0032634D01*
X0011958Y0032499D01*
X0011925Y0032363D01*
X0011896Y0032225D01*
X0011871Y0032088D01*
X0011849Y0031949D01*
X0011831Y0031810D01*
X0011818Y0031670D01*
X0011808Y0031530D01*
X0011802Y0031390D01*
X0011800Y0031250D01*
X0151800Y0031250D02*
X0151800Y0016250D01*
X0176800Y0016250D01*
X0176940Y0016252D01*
X0177080Y0016258D01*
X0177220Y0016268D01*
X0177360Y0016281D01*
X0177499Y0016299D01*
X0177638Y0016321D01*
X0177775Y0016346D01*
X0177913Y0016375D01*
X0178049Y0016408D01*
X0178184Y0016445D01*
X0178318Y0016486D01*
X0178451Y0016531D01*
X0178583Y0016579D01*
X0178713Y0016631D01*
X0178842Y0016686D01*
X0178969Y0016745D01*
X0179095Y0016808D01*
X0179219Y0016874D01*
X0179340Y0016943D01*
X0179460Y0017016D01*
X0179578Y0017093D01*
X0179693Y0017172D01*
X0179807Y0017255D01*
X0179917Y0017341D01*
X0180026Y0017430D01*
X0180132Y0017522D01*
X0180235Y0017617D01*
X0180336Y0017714D01*
X0180433Y0017815D01*
X0180528Y0017918D01*
X0180620Y0018024D01*
X0180709Y0018133D01*
X0180795Y0018243D01*
X0180878Y0018357D01*
X0180957Y0018472D01*
X0181034Y0018590D01*
X0181107Y0018710D01*
X0181176Y0018831D01*
X0181242Y0018955D01*
X0181305Y0019081D01*
X0181364Y0019208D01*
X0181419Y0019337D01*
X0181471Y0019467D01*
X0181519Y0019599D01*
X0181564Y0019732D01*
X0181605Y0019866D01*
X0181642Y0020001D01*
X0181675Y0020137D01*
X0181704Y0020275D01*
X0181729Y0020412D01*
X0181751Y0020551D01*
X0181769Y0020690D01*
X0181782Y0020830D01*
X0181792Y0020970D01*
X0181798Y0021110D01*
X0181800Y0021250D01*
X0181800Y0031250D01*
X0181798Y0031390D01*
X0181792Y0031530D01*
X0181782Y0031670D01*
X0181769Y0031810D01*
X0181751Y0031949D01*
X0181729Y0032088D01*
X0181704Y0032225D01*
X0181675Y0032363D01*
X0181642Y0032499D01*
X0181605Y0032634D01*
X0181564Y0032768D01*
X0181519Y0032901D01*
X0181471Y0033033D01*
X0181419Y0033163D01*
X0181364Y0033292D01*
X0181305Y0033419D01*
X0181242Y0033545D01*
X0181176Y0033669D01*
X0181107Y0033790D01*
X0181034Y0033910D01*
X0180957Y0034028D01*
X0180878Y0034143D01*
X0180795Y0034257D01*
X0180709Y0034367D01*
X0180620Y0034476D01*
X0180528Y0034582D01*
X0180433Y0034685D01*
X0180336Y0034786D01*
X0180235Y0034883D01*
X0180132Y0034978D01*
X0180026Y0035070D01*
X0179917Y0035159D01*
X0179807Y0035245D01*
X0179693Y0035328D01*
X0179578Y0035407D01*
X0179460Y0035484D01*
X0179340Y0035557D01*
X0179219Y0035626D01*
X0179095Y0035692D01*
X0178969Y0035755D01*
X0178842Y0035814D01*
X0178713Y0035869D01*
X0178583Y0035921D01*
X0178451Y0035969D01*
X0178318Y0036014D01*
X0178184Y0036055D01*
X0178049Y0036092D01*
X0177913Y0036125D01*
X0177775Y0036154D01*
X0177638Y0036179D01*
X0177499Y0036201D01*
X0177360Y0036219D01*
X0177220Y0036232D01*
X0177080Y0036242D01*
X0176940Y0036248D01*
X0176800Y0036250D01*
X0156800Y0036250D01*
X0156660Y0036248D01*
X0156520Y0036242D01*
X0156380Y0036232D01*
X0156240Y0036219D01*
X0156101Y0036201D01*
X0155962Y0036179D01*
X0155825Y0036154D01*
X0155687Y0036125D01*
X0155551Y0036092D01*
X0155416Y0036055D01*
X0155282Y0036014D01*
X0155149Y0035969D01*
X0155017Y0035921D01*
X0154887Y0035869D01*
X0154758Y0035814D01*
X0154631Y0035755D01*
X0154505Y0035692D01*
X0154381Y0035626D01*
X0154260Y0035557D01*
X0154140Y0035484D01*
X0154022Y0035407D01*
X0153907Y0035328D01*
X0153793Y0035245D01*
X0153683Y0035159D01*
X0153574Y0035070D01*
X0153468Y0034978D01*
X0153365Y0034883D01*
X0153264Y0034786D01*
X0153167Y0034685D01*
X0153072Y0034582D01*
X0152980Y0034476D01*
X0152891Y0034367D01*
X0152805Y0034257D01*
X0152722Y0034143D01*
X0152643Y0034028D01*
X0152566Y0033910D01*
X0152493Y0033790D01*
X0152424Y0033669D01*
X0152358Y0033545D01*
X0152295Y0033419D01*
X0152236Y0033292D01*
X0152181Y0033163D01*
X0152129Y0033033D01*
X0152081Y0032901D01*
X0152036Y0032768D01*
X0151995Y0032634D01*
X0151958Y0032499D01*
X0151925Y0032363D01*
X0151896Y0032225D01*
X0151871Y0032088D01*
X0151849Y0031949D01*
X0151831Y0031810D01*
X0151818Y0031670D01*
X0151808Y0031530D01*
X0151802Y0031390D01*
X0151800Y0031250D01*
D15*
X0148733Y0027787D02*
X0148733Y0024717D01*
X0147198Y0026252D02*
X0150267Y0026252D01*
X0155035Y0022554D02*
X0155035Y0017950D01*
X0156569Y0017950D02*
X0153500Y0017950D01*
X0153500Y0021019D02*
X0155035Y0022554D01*
X0134698Y0043950D02*
X0133163Y0043950D01*
X0132396Y0044717D01*
X0130861Y0045485D02*
X0130861Y0048554D01*
X0132396Y0047787D02*
X0133163Y0048554D01*
X0134698Y0048554D01*
X0135465Y0047787D01*
X0135465Y0047019D01*
X0134698Y0046252D01*
X0135465Y0045485D01*
X0135465Y0044717D01*
X0134698Y0043950D01*
X0134698Y0046252D02*
X0133931Y0046252D01*
X0130861Y0045485D02*
X0129327Y0043950D01*
X0127792Y0045485D01*
X0127792Y0048554D01*
X0126257Y0047787D02*
X0126257Y0047019D01*
X0125490Y0046252D01*
X0126257Y0045485D01*
X0126257Y0044717D01*
X0125490Y0043950D01*
X0123956Y0043950D01*
X0123188Y0044717D01*
X0124723Y0046252D02*
X0125490Y0046252D01*
X0126257Y0047787D02*
X0125490Y0048554D01*
X0123956Y0048554D01*
X0123188Y0047787D01*
X0127396Y0053950D02*
X0129698Y0053950D01*
X0130465Y0054717D01*
X0130465Y0057787D01*
X0129698Y0058554D01*
X0127396Y0058554D01*
X0127396Y0053950D01*
X0132000Y0054717D02*
X0132000Y0055485D01*
X0132767Y0056252D01*
X0134302Y0056252D01*
X0135069Y0055485D01*
X0135069Y0054717D01*
X0134302Y0053950D01*
X0132767Y0053950D01*
X0132000Y0054717D01*
X0132767Y0056252D02*
X0132000Y0057019D01*
X0132000Y0057787D01*
X0132767Y0058554D01*
X0134302Y0058554D01*
X0135069Y0057787D01*
X0135069Y0057019D01*
X0134302Y0056252D01*
X0132000Y0063950D02*
X0132000Y0064717D01*
X0135069Y0067787D01*
X0135069Y0068554D01*
X0132000Y0068554D01*
X0130465Y0067787D02*
X0129698Y0068554D01*
X0127396Y0068554D01*
X0127396Y0063950D01*
X0129698Y0063950D01*
X0130465Y0064717D01*
X0130465Y0067787D01*
X0129698Y0073950D02*
X0127396Y0073950D01*
X0127396Y0078554D01*
X0129698Y0078554D01*
X0130465Y0077787D01*
X0130465Y0074717D01*
X0129698Y0073950D01*
X0132000Y0074717D02*
X0132767Y0073950D01*
X0134302Y0073950D01*
X0135069Y0074717D01*
X0135069Y0075485D01*
X0134302Y0076252D01*
X0132000Y0076252D01*
X0132000Y0074717D01*
X0132000Y0076252D02*
X0133535Y0077787D01*
X0135069Y0078554D01*
X0134302Y0083950D02*
X0132767Y0083950D01*
X0132000Y0084717D01*
X0130465Y0084717D02*
X0130465Y0087787D01*
X0129698Y0088554D01*
X0127396Y0088554D01*
X0127396Y0083950D01*
X0129698Y0083950D01*
X0130465Y0084717D01*
X0132000Y0086252D02*
X0133535Y0087019D01*
X0134302Y0087019D01*
X0135069Y0086252D01*
X0135069Y0084717D01*
X0134302Y0083950D01*
X0132000Y0086252D02*
X0132000Y0088554D01*
X0135069Y0088554D01*
X0134302Y0093950D02*
X0132767Y0093950D01*
X0132000Y0094717D01*
X0135069Y0097787D01*
X0135069Y0094717D01*
X0134302Y0093950D01*
X0132000Y0094717D02*
X0132000Y0097787D01*
X0132767Y0098554D01*
X0134302Y0098554D01*
X0135069Y0097787D01*
X0130465Y0097787D02*
X0130465Y0094717D01*
X0129698Y0093950D01*
X0127396Y0093950D01*
X0127396Y0098554D01*
X0129698Y0098554D01*
X0130465Y0097787D01*
X0130465Y0103950D02*
X0130465Y0107019D01*
X0128931Y0108554D01*
X0127396Y0107019D01*
X0127396Y0103950D01*
X0127396Y0106252D02*
X0130465Y0106252D01*
X0132000Y0104717D02*
X0132000Y0107787D01*
X0132767Y0108554D01*
X0134302Y0108554D01*
X0135069Y0107787D01*
X0132000Y0104717D01*
X0132767Y0103950D01*
X0134302Y0103950D01*
X0135069Y0104717D01*
X0135069Y0107787D01*
X0133931Y0113950D02*
X0133931Y0118554D01*
X0135465Y0118554D02*
X0132396Y0118554D01*
X0130861Y0117787D02*
X0130094Y0118554D01*
X0128559Y0118554D01*
X0127792Y0117787D01*
X0127792Y0117019D01*
X0128559Y0116252D01*
X0130094Y0116252D01*
X0130861Y0115485D01*
X0130861Y0114717D01*
X0130094Y0113950D01*
X0128559Y0113950D01*
X0127792Y0114717D01*
X0126257Y0113950D02*
X0124723Y0115485D01*
X0125490Y0115485D02*
X0123188Y0115485D01*
X0123188Y0113950D02*
X0123188Y0118554D01*
X0125490Y0118554D01*
X0126257Y0117787D01*
X0126257Y0116252D01*
X0125490Y0115485D01*
X0161798Y0109717D02*
X0161798Y0106648D01*
X0171229Y0107415D02*
X0172763Y0108950D01*
X0171996Y0109717D01*
X0171229Y0107415D02*
X0171996Y0106648D01*
X0179698Y0108752D02*
X0182767Y0108752D01*
X0181233Y0110287D02*
X0181233Y0107217D01*
X0181233Y0095287D02*
X0181233Y0092217D01*
X0179698Y0093752D02*
X0182767Y0093752D01*
X0172763Y0093950D02*
X0171996Y0094717D01*
X0172763Y0093950D02*
X0171229Y0092415D01*
X0171996Y0091648D01*
X0161798Y0091648D02*
X0161798Y0094717D01*
X0161798Y0079717D02*
X0161798Y0076648D01*
X0171229Y0077415D02*
X0172763Y0078950D01*
X0171996Y0079717D01*
X0171229Y0077415D02*
X0171996Y0076648D01*
X0179698Y0078752D02*
X0182767Y0078752D01*
X0181233Y0080287D02*
X0181233Y0077217D01*
X0181233Y0065287D02*
X0181233Y0062217D01*
X0179698Y0063752D02*
X0182767Y0063752D01*
X0172763Y0063950D02*
X0171996Y0064717D01*
X0172763Y0063950D02*
X0171229Y0062415D01*
X0171996Y0061648D01*
X0161798Y0061648D02*
X0161798Y0064717D01*
X0182198Y0026252D02*
X0185267Y0026252D01*
X0181233Y0122217D02*
X0181233Y0125287D01*
X0179698Y0123752D02*
X0182767Y0123752D01*
X0172763Y0123950D02*
X0171996Y0124717D01*
X0172763Y0123950D02*
X0171229Y0122415D01*
X0171996Y0121648D01*
X0161798Y0121648D02*
X0161798Y0124717D01*
X0161798Y0136648D02*
X0161798Y0139717D01*
X0171229Y0137415D02*
X0171996Y0136648D01*
X0171229Y0137415D02*
X0172763Y0138950D01*
X0171996Y0139717D01*
X0179698Y0138752D02*
X0182767Y0138752D01*
X0181233Y0140287D02*
X0181233Y0137217D01*
X0069277Y0057787D02*
X0069277Y0054717D01*
X0068510Y0053950D01*
X0066208Y0053950D01*
X0066208Y0058554D01*
X0068510Y0058554D01*
X0069277Y0057787D01*
X0064673Y0058554D02*
X0064673Y0053950D01*
X0061604Y0058554D01*
X0061604Y0053950D01*
X0060069Y0054717D02*
X0060069Y0056252D01*
X0058535Y0056252D01*
X0060069Y0057787D02*
X0059302Y0058554D01*
X0057767Y0058554D01*
X0057000Y0057787D01*
X0057000Y0054717D01*
X0057767Y0053950D01*
X0059302Y0053950D01*
X0060069Y0054717D01*
X0060465Y0048554D02*
X0057396Y0048554D01*
X0057396Y0046252D01*
X0058931Y0047019D01*
X0059698Y0047019D01*
X0060465Y0046252D01*
X0060465Y0044717D01*
X0059698Y0043950D01*
X0058163Y0043950D01*
X0057396Y0044717D01*
X0062000Y0045485D02*
X0062000Y0048554D01*
X0065069Y0048554D02*
X0065069Y0045485D01*
X0063535Y0043950D01*
X0062000Y0045485D01*
X0043733Y0027787D02*
X0043733Y0024717D01*
X0042198Y0026252D02*
X0045267Y0026252D01*
X0016069Y0021287D02*
X0016069Y0020519D01*
X0013000Y0017450D01*
X0016069Y0017450D01*
X0016069Y0021287D02*
X0015302Y0022054D01*
X0013767Y0022054D01*
X0013000Y0021287D01*
X0010267Y0026252D02*
X0007198Y0026252D01*
X0009298Y0069148D02*
X0009298Y0072217D01*
X0024298Y0072217D02*
X0024298Y0069148D01*
X0009496Y0089148D02*
X0008729Y0089915D01*
X0010263Y0091450D01*
X0009496Y0092217D01*
X0008733Y0099717D02*
X0008733Y0102787D01*
X0007198Y0101252D02*
X0010267Y0101252D01*
X0011798Y0106648D02*
X0011798Y0109717D01*
X0021229Y0107415D02*
X0022763Y0108950D01*
X0021996Y0109717D01*
X0021229Y0107415D02*
X0021996Y0106648D01*
X0023733Y0102787D02*
X0023733Y0099717D01*
X0022198Y0101252D02*
X0025267Y0101252D01*
X0031233Y0107217D02*
X0031233Y0110287D01*
X0029698Y0108752D02*
X0032767Y0108752D01*
X0038497Y0112767D02*
X0038497Y0114568D01*
X0039097Y0115169D01*
X0040298Y0115169D01*
X0040899Y0114568D01*
X0040899Y0112767D01*
X0040899Y0113968D02*
X0042100Y0115169D01*
X0042100Y0116450D02*
X0038497Y0118852D01*
X0038497Y0116450D02*
X0042100Y0118852D01*
X0042100Y0112767D02*
X0038497Y0112767D01*
X0031233Y0122217D02*
X0031233Y0125287D01*
X0029698Y0123752D02*
X0032767Y0123752D01*
X0038997Y0127767D02*
X0038997Y0130169D01*
X0038997Y0128968D02*
X0042600Y0128968D01*
X0042600Y0131450D02*
X0038997Y0133852D01*
X0038997Y0131450D02*
X0042600Y0133852D01*
X0032767Y0138752D02*
X0029698Y0138752D01*
X0031233Y0140287D02*
X0031233Y0137217D01*
X0022763Y0138950D02*
X0021996Y0139717D01*
X0022763Y0138950D02*
X0021229Y0137415D01*
X0021996Y0136648D01*
X0011798Y0136648D02*
X0011798Y0139717D01*
X0011798Y0124717D02*
X0011798Y0121648D01*
X0021229Y0122415D02*
X0022763Y0123950D01*
X0021996Y0124717D01*
X0021229Y0122415D02*
X0021996Y0121648D01*
X0057396Y0118554D02*
X0060465Y0118554D01*
X0058931Y0118554D02*
X0058931Y0113950D01*
X0062000Y0113950D02*
X0065069Y0118554D01*
X0062000Y0118554D02*
X0065069Y0113950D01*
X0065069Y0108554D02*
X0062000Y0103950D01*
X0060465Y0103950D02*
X0058931Y0105485D01*
X0059698Y0105485D02*
X0057396Y0105485D01*
X0057396Y0103950D02*
X0057396Y0108554D01*
X0059698Y0108554D01*
X0060465Y0107787D01*
X0060465Y0106252D01*
X0059698Y0105485D01*
X0062000Y0108554D02*
X0065069Y0103950D01*
X0063535Y0098554D02*
X0063535Y0093950D01*
X0065069Y0093950D02*
X0062000Y0093950D01*
X0060465Y0094717D02*
X0060465Y0097787D01*
X0059698Y0098554D01*
X0057396Y0098554D01*
X0057396Y0093950D01*
X0059698Y0093950D01*
X0060465Y0094717D01*
X0062000Y0097019D02*
X0063535Y0098554D01*
X0064302Y0088554D02*
X0062767Y0088554D01*
X0062000Y0087787D01*
X0060465Y0087787D02*
X0059698Y0088554D01*
X0057396Y0088554D01*
X0057396Y0083950D01*
X0059698Y0083950D01*
X0060465Y0084717D01*
X0060465Y0087787D01*
X0064302Y0088554D02*
X0065069Y0087787D01*
X0065069Y0087019D01*
X0062000Y0083950D01*
X0065069Y0083950D01*
X0064302Y0078554D02*
X0062767Y0078554D01*
X0062000Y0077787D01*
X0060465Y0077787D02*
X0059698Y0078554D01*
X0057396Y0078554D01*
X0057396Y0073950D01*
X0059698Y0073950D01*
X0060465Y0074717D01*
X0060465Y0077787D01*
X0063535Y0076252D02*
X0064302Y0076252D01*
X0065069Y0075485D01*
X0065069Y0074717D01*
X0064302Y0073950D01*
X0062767Y0073950D01*
X0062000Y0074717D01*
X0064302Y0076252D02*
X0065069Y0077019D01*
X0065069Y0077787D01*
X0064302Y0078554D01*
X0064302Y0068554D02*
X0062000Y0066252D01*
X0065069Y0066252D01*
X0064302Y0063950D02*
X0064302Y0068554D01*
X0060465Y0067787D02*
X0059698Y0068554D01*
X0057396Y0068554D01*
X0057396Y0063950D01*
X0059698Y0063950D01*
X0060465Y0064717D01*
X0060465Y0067787D01*
D16*
X0074947Y0073752D02*
X0076798Y0071900D01*
X0076798Y0074369D01*
X0077416Y0075583D02*
X0074947Y0078052D01*
X0074947Y0079266D02*
X0074947Y0081735D01*
X0075564Y0081735D01*
X0078033Y0079266D01*
X0078650Y0079266D01*
X0078650Y0078052D02*
X0076798Y0076200D01*
X0074947Y0075583D02*
X0078650Y0075583D01*
X0078650Y0073752D02*
X0074947Y0073752D01*
X0086450Y0074900D02*
X0086450Y0078603D01*
X0088302Y0078603D01*
X0088919Y0077986D01*
X0088919Y0076752D01*
X0088302Y0076134D01*
X0086450Y0076134D01*
X0087684Y0076134D02*
X0088919Y0074900D01*
X0090133Y0074900D02*
X0092602Y0074900D01*
X0091368Y0074900D02*
X0091368Y0078603D01*
X0090133Y0077369D01*
X0113950Y0064603D02*
X0113950Y0060900D01*
X0113950Y0062134D02*
X0115802Y0062134D01*
X0116419Y0062752D01*
X0116419Y0063986D01*
X0115802Y0064603D01*
X0113950Y0064603D01*
X0115184Y0062134D02*
X0116419Y0060900D01*
X0117633Y0060900D02*
X0120102Y0063369D01*
X0120102Y0063986D01*
X0119485Y0064603D01*
X0118250Y0064603D01*
X0117633Y0063986D01*
X0117633Y0060900D02*
X0120102Y0060900D01*
X0120316Y0053103D02*
X0122785Y0053103D01*
X0122785Y0052486D01*
X0120316Y0050017D01*
X0120316Y0049400D01*
X0119102Y0049400D02*
X0117250Y0051252D01*
X0116633Y0050634D02*
X0119102Y0053103D01*
X0116633Y0053103D02*
X0116633Y0049400D01*
X0114802Y0049400D02*
X0114802Y0053103D01*
X0112950Y0051252D01*
X0115419Y0051252D01*
X0110381Y0041603D02*
X0110998Y0040986D01*
X0110998Y0039752D01*
X0110381Y0039134D01*
X0108529Y0039134D01*
X0108529Y0037900D02*
X0108529Y0041603D01*
X0110381Y0041603D01*
X0112212Y0039752D02*
X0112212Y0038517D01*
X0112829Y0037900D01*
X0114064Y0037900D01*
X0114681Y0038517D01*
X0114681Y0039752D01*
X0114064Y0040369D01*
X0112829Y0040369D01*
X0112212Y0039752D01*
X0115895Y0040369D02*
X0115895Y0038517D01*
X0116512Y0037900D01*
X0117130Y0038517D01*
X0117747Y0037900D01*
X0118364Y0038517D01*
X0118364Y0040369D01*
X0119578Y0039752D02*
X0120196Y0040369D01*
X0121430Y0040369D01*
X0122047Y0039752D01*
X0122047Y0039134D01*
X0119578Y0039134D01*
X0119578Y0038517D02*
X0119578Y0039752D01*
X0119578Y0038517D02*
X0120196Y0037900D01*
X0121430Y0037900D01*
X0123262Y0037900D02*
X0123262Y0040369D01*
X0124496Y0040369D02*
X0123262Y0039134D01*
X0124496Y0040369D02*
X0125113Y0040369D01*
X0103625Y0037900D02*
X0102390Y0037900D01*
X0103008Y0037900D02*
X0103008Y0041603D01*
X0102390Y0041603D01*
X0100559Y0040369D02*
X0101176Y0039752D01*
X0101176Y0037900D01*
X0099324Y0037900D01*
X0098707Y0038517D01*
X0099324Y0039134D01*
X0101176Y0039134D01*
X0100559Y0040369D02*
X0099324Y0040369D01*
X0097493Y0039752D02*
X0097493Y0037900D01*
X0097493Y0039752D02*
X0096876Y0040369D01*
X0095024Y0040369D01*
X0095024Y0037900D01*
X0093806Y0040369D02*
X0093189Y0040369D01*
X0091955Y0039134D01*
X0090740Y0039134D02*
X0088272Y0039134D01*
X0088272Y0038517D02*
X0088272Y0039752D01*
X0088889Y0040369D01*
X0090123Y0040369D01*
X0090740Y0039752D01*
X0090740Y0039134D01*
X0090123Y0037900D02*
X0088889Y0037900D01*
X0088272Y0038517D01*
X0087051Y0037900D02*
X0086433Y0038517D01*
X0086433Y0040986D01*
X0085816Y0040369D02*
X0087051Y0040369D01*
X0084602Y0040369D02*
X0082133Y0037900D01*
X0080919Y0037900D02*
X0078450Y0037900D01*
X0078450Y0041603D01*
X0080919Y0041603D01*
X0082133Y0040369D02*
X0084602Y0037900D01*
X0079684Y0039752D02*
X0078450Y0039752D01*
X0091955Y0040369D02*
X0091955Y0037900D01*
X0037771Y0061000D02*
X0037771Y0063902D01*
X0038738Y0063902D02*
X0036803Y0063902D01*
X0035792Y0063902D02*
X0035792Y0061000D01*
X0035792Y0062451D02*
X0033857Y0062451D01*
X0032845Y0062451D02*
X0032845Y0061484D01*
X0032362Y0061000D01*
X0031394Y0061000D01*
X0030910Y0061484D01*
X0030910Y0063419D01*
X0031394Y0063902D01*
X0032362Y0063902D01*
X0032845Y0063419D01*
X0032845Y0062451D02*
X0031878Y0062451D01*
X0029914Y0061000D02*
X0028946Y0061000D01*
X0029430Y0061000D02*
X0029430Y0063902D01*
X0028946Y0063902D02*
X0029914Y0063902D01*
X0027935Y0061000D02*
X0026000Y0061000D01*
X0026000Y0063902D01*
X0026238Y0063902D02*
X0026238Y0063419D01*
X0025271Y0062451D01*
X0025271Y0061000D01*
X0025271Y0062451D02*
X0024303Y0063419D01*
X0024303Y0063902D01*
X0023292Y0063902D02*
X0021357Y0063902D01*
X0022324Y0063902D02*
X0022324Y0061000D01*
X0020360Y0061000D02*
X0019393Y0061000D01*
X0019876Y0061000D02*
X0019876Y0063902D01*
X0019393Y0063902D02*
X0020360Y0063902D01*
X0018381Y0063419D02*
X0017897Y0063902D01*
X0016446Y0063902D01*
X0016446Y0061000D01*
X0017897Y0061000D01*
X0018381Y0061484D01*
X0018381Y0063419D01*
X0015449Y0063902D02*
X0014482Y0063902D01*
X0014965Y0063902D02*
X0014965Y0061000D01*
X0014482Y0061000D02*
X0015449Y0061000D01*
X0013470Y0061000D02*
X0013470Y0063902D01*
X0012503Y0062935D01*
X0011535Y0063902D01*
X0011535Y0061000D01*
X0010524Y0061484D02*
X0010524Y0063902D01*
X0008589Y0063902D02*
X0008589Y0061484D01*
X0009072Y0061000D01*
X0010040Y0061000D01*
X0010524Y0061484D01*
X0007577Y0061000D02*
X0007577Y0063902D01*
X0007577Y0062451D02*
X0005642Y0062451D01*
X0005642Y0061000D02*
X0005642Y0063902D01*
X0007848Y0078453D02*
X0010750Y0080388D01*
X0007848Y0080388D01*
X0008331Y0081400D02*
X0010266Y0081400D01*
X0010750Y0081884D01*
X0010750Y0082851D01*
X0010266Y0083335D01*
X0008331Y0083335D02*
X0007848Y0082851D01*
X0007848Y0081884D01*
X0008331Y0081400D01*
X0007848Y0078453D02*
X0010750Y0078453D01*
X0022848Y0078431D02*
X0022848Y0077464D01*
X0023331Y0076980D01*
X0023815Y0076980D01*
X0024299Y0077464D01*
X0024299Y0078431D01*
X0024783Y0078915D01*
X0025266Y0078915D01*
X0025750Y0078431D01*
X0025750Y0077464D01*
X0025266Y0076980D01*
X0023331Y0078915D02*
X0022848Y0078431D01*
X0022848Y0079927D02*
X0022848Y0081378D01*
X0023331Y0081862D01*
X0025266Y0081862D01*
X0025750Y0081378D01*
X0025750Y0079927D01*
X0022848Y0079927D01*
X0023815Y0082873D02*
X0022848Y0083841D01*
X0023815Y0084808D01*
X0025750Y0084808D01*
X0024299Y0084808D02*
X0024299Y0082873D01*
X0023815Y0082873D02*
X0025750Y0082873D01*
X0025266Y0086980D02*
X0025750Y0087464D01*
X0025750Y0088431D01*
X0025266Y0088915D01*
X0024783Y0088915D01*
X0024299Y0088431D01*
X0024299Y0087464D01*
X0023815Y0086980D01*
X0023331Y0086980D01*
X0022848Y0087464D01*
X0022848Y0088431D01*
X0023331Y0088915D01*
X0023331Y0089927D02*
X0022848Y0090410D01*
X0022848Y0091378D01*
X0023331Y0091862D01*
X0022848Y0092873D02*
X0025750Y0092873D01*
X0025750Y0094808D01*
X0025266Y0091862D02*
X0025750Y0091378D01*
X0025750Y0090410D01*
X0025266Y0089927D01*
X0023331Y0089927D01*
X0033857Y0063902D02*
X0033857Y0061000D01*
X0008331Y0037319D02*
X0007848Y0037802D01*
X0006880Y0037802D01*
X0006397Y0037319D01*
X0005385Y0037319D02*
X0005385Y0035384D01*
X0004901Y0034900D01*
X0003934Y0034900D01*
X0003450Y0035384D01*
X0003450Y0037319D01*
X0003934Y0037802D01*
X0004901Y0037802D01*
X0005385Y0037319D01*
X0004417Y0035867D02*
X0005385Y0034900D01*
X0006397Y0034900D02*
X0008331Y0036835D01*
X0008331Y0037319D01*
X0008331Y0034900D02*
X0006397Y0034900D01*
X0038240Y0138494D02*
X0040714Y0140511D01*
X0041710Y0139998D01*
X0043123Y0143408D01*
X0042591Y0143692D01*
X0042125Y0144075D01*
X0041742Y0144541D01*
X0041458Y0145073D01*
X0041283Y0145650D01*
X0041224Y0146250D01*
X0041289Y0146878D01*
X0041481Y0147480D01*
X0041791Y0148030D01*
X0042208Y0148505D01*
X0042712Y0148885D01*
X0043284Y0149153D01*
X0043898Y0149300D01*
X0044530Y0149317D01*
X0045151Y0149206D01*
X0045737Y0148970D01*
X0046262Y0148619D01*
X0046705Y0148168D01*
X0047046Y0147636D01*
X0047271Y0147046D01*
X0047371Y0146423D01*
X0047342Y0145792D01*
X0047184Y0145180D01*
X0046904Y0144614D01*
X0046515Y0144116D01*
X0046033Y0143709D01*
X0045477Y0143408D01*
X0046890Y0139998D01*
X0047886Y0140511D01*
X0050360Y0138494D01*
X0052056Y0140190D01*
X0050039Y0142664D01*
X0050552Y0143661D01*
X0050893Y0144728D01*
X0054069Y0145050D01*
X0054069Y0147450D01*
X0050893Y0147772D01*
X0050552Y0148839D01*
X0050039Y0149836D01*
X0052056Y0152310D01*
X0050360Y0154006D01*
X0047886Y0151989D01*
X0046889Y0152502D01*
X0045822Y0152843D01*
X0045500Y0156019D01*
X0043100Y0156019D01*
X0042778Y0152843D01*
X0041711Y0152502D01*
X0040714Y0151989D01*
X0038240Y0154006D01*
X0036544Y0152310D01*
X0038561Y0149836D01*
X0038048Y0148839D01*
X0037707Y0147772D01*
X0034531Y0147450D01*
X0034531Y0145050D01*
X0037707Y0144728D01*
X0038048Y0143661D01*
X0038561Y0142664D01*
X0036544Y0140190D01*
X0038240Y0138494D01*
X0038020Y0138714D02*
X0038510Y0138714D01*
X0038876Y0139013D02*
X0037721Y0139013D01*
X0037423Y0139311D02*
X0039242Y0139311D01*
X0039609Y0139610D02*
X0037124Y0139610D01*
X0036826Y0139908D02*
X0039975Y0139908D01*
X0040341Y0140207D02*
X0036558Y0140207D01*
X0036801Y0140505D02*
X0040707Y0140505D01*
X0040726Y0140505D02*
X0041920Y0140505D01*
X0041797Y0140207D02*
X0041305Y0140207D01*
X0042044Y0140804D02*
X0037045Y0140804D01*
X0037288Y0141102D02*
X0042168Y0141102D01*
X0042291Y0141401D02*
X0037531Y0141401D01*
X0037775Y0141699D02*
X0042415Y0141699D01*
X0042539Y0141998D02*
X0038018Y0141998D01*
X0038262Y0142296D02*
X0042662Y0142296D01*
X0042786Y0142595D02*
X0038505Y0142595D01*
X0038443Y0142893D02*
X0042910Y0142893D01*
X0043033Y0143192D02*
X0038290Y0143192D01*
X0038136Y0143491D02*
X0042969Y0143491D01*
X0042473Y0143789D02*
X0038007Y0143789D01*
X0037912Y0144088D02*
X0042115Y0144088D01*
X0041870Y0144386D02*
X0037816Y0144386D01*
X0037721Y0144685D02*
X0041666Y0144685D01*
X0041506Y0144983D02*
X0035194Y0144983D01*
X0034531Y0145282D02*
X0041395Y0145282D01*
X0041304Y0145580D02*
X0034531Y0145580D01*
X0034531Y0145879D02*
X0041261Y0145879D01*
X0041231Y0146177D02*
X0034531Y0146177D01*
X0034531Y0146476D02*
X0041247Y0146476D01*
X0041278Y0146774D02*
X0034531Y0146774D01*
X0034531Y0147073D02*
X0041351Y0147073D01*
X0041446Y0147371D02*
X0034531Y0147371D01*
X0036698Y0147670D02*
X0041588Y0147670D01*
X0041756Y0147968D02*
X0037769Y0147968D01*
X0037865Y0148267D02*
X0041999Y0148267D01*
X0042288Y0148565D02*
X0037961Y0148565D01*
X0038061Y0148864D02*
X0042685Y0148864D01*
X0043321Y0149162D02*
X0038215Y0149162D01*
X0038368Y0149461D02*
X0050232Y0149461D01*
X0050078Y0149759D02*
X0038522Y0149759D01*
X0038380Y0150058D02*
X0050220Y0150058D01*
X0050463Y0150356D02*
X0038137Y0150356D01*
X0037894Y0150655D02*
X0050706Y0150655D01*
X0050950Y0150953D02*
X0037650Y0150953D01*
X0037407Y0151252D02*
X0051193Y0151252D01*
X0051437Y0151550D02*
X0037163Y0151550D01*
X0036920Y0151849D02*
X0051680Y0151849D01*
X0051923Y0152147D02*
X0048081Y0152147D01*
X0048447Y0152446D02*
X0051920Y0152446D01*
X0051621Y0152744D02*
X0048813Y0152744D01*
X0049179Y0153043D02*
X0051323Y0153043D01*
X0051024Y0153341D02*
X0049545Y0153341D01*
X0049911Y0153640D02*
X0050726Y0153640D01*
X0050427Y0153938D02*
X0050277Y0153938D01*
X0047578Y0152147D02*
X0041022Y0152147D01*
X0040519Y0152147D02*
X0036677Y0152147D01*
X0036680Y0152446D02*
X0040153Y0152446D01*
X0039787Y0152744D02*
X0036979Y0152744D01*
X0037277Y0153043D02*
X0039421Y0153043D01*
X0039055Y0153341D02*
X0037576Y0153341D01*
X0037874Y0153640D02*
X0038689Y0153640D01*
X0038323Y0153938D02*
X0038173Y0153938D01*
X0041602Y0152446D02*
X0046998Y0152446D01*
X0046131Y0152744D02*
X0042469Y0152744D01*
X0042798Y0153043D02*
X0045802Y0153043D01*
X0045771Y0153341D02*
X0042829Y0153341D01*
X0042859Y0153640D02*
X0045741Y0153640D01*
X0045711Y0153938D02*
X0042889Y0153938D01*
X0042919Y0154237D02*
X0045681Y0154237D01*
X0045650Y0154535D02*
X0042950Y0154535D01*
X0042980Y0154834D02*
X0045620Y0154834D01*
X0045590Y0155132D02*
X0043010Y0155132D01*
X0043041Y0155431D02*
X0045559Y0155431D01*
X0045529Y0155729D02*
X0043071Y0155729D01*
X0045259Y0149162D02*
X0050385Y0149162D01*
X0050539Y0148864D02*
X0045895Y0148864D01*
X0046315Y0148565D02*
X0050639Y0148565D01*
X0050735Y0148267D02*
X0046608Y0148267D01*
X0046833Y0147968D02*
X0050831Y0147968D01*
X0051902Y0147670D02*
X0047024Y0147670D01*
X0047147Y0147371D02*
X0054069Y0147371D01*
X0054069Y0147073D02*
X0047261Y0147073D01*
X0047315Y0146774D02*
X0054069Y0146774D01*
X0054069Y0146476D02*
X0047362Y0146476D01*
X0047360Y0146177D02*
X0054069Y0146177D01*
X0054069Y0145879D02*
X0047346Y0145879D01*
X0047287Y0145580D02*
X0054069Y0145580D01*
X0054069Y0145282D02*
X0047210Y0145282D01*
X0047087Y0144983D02*
X0053406Y0144983D01*
X0050879Y0144685D02*
X0046939Y0144685D01*
X0046726Y0144386D02*
X0050784Y0144386D01*
X0050688Y0144088D02*
X0046481Y0144088D01*
X0046128Y0143789D02*
X0050593Y0143789D01*
X0050464Y0143491D02*
X0045629Y0143491D01*
X0045567Y0143192D02*
X0050310Y0143192D01*
X0050157Y0142893D02*
X0045690Y0142893D01*
X0045814Y0142595D02*
X0050095Y0142595D01*
X0050338Y0142296D02*
X0045938Y0142296D01*
X0046061Y0141998D02*
X0050582Y0141998D01*
X0050825Y0141699D02*
X0046185Y0141699D01*
X0046309Y0141401D02*
X0051069Y0141401D01*
X0051312Y0141102D02*
X0046432Y0141102D01*
X0046556Y0140804D02*
X0051555Y0140804D01*
X0051799Y0140505D02*
X0047893Y0140505D01*
X0047874Y0140505D02*
X0046680Y0140505D01*
X0046803Y0140207D02*
X0047295Y0140207D01*
X0048259Y0140207D02*
X0052042Y0140207D01*
X0051774Y0139908D02*
X0048625Y0139908D01*
X0048991Y0139610D02*
X0051476Y0139610D01*
X0051177Y0139311D02*
X0049358Y0139311D01*
X0049724Y0139013D02*
X0050879Y0139013D01*
X0050580Y0138714D02*
X0050090Y0138714D01*
X0151248Y0136281D02*
X0151248Y0134347D01*
X0154150Y0134347D01*
X0154150Y0136281D01*
X0152699Y0135314D02*
X0152699Y0134347D01*
X0153183Y0133335D02*
X0151248Y0133335D01*
X0153183Y0133335D02*
X0154150Y0132367D01*
X0153183Y0131400D01*
X0151248Y0131400D01*
X0151731Y0130388D02*
X0151248Y0129905D01*
X0151248Y0128937D01*
X0151731Y0128453D01*
X0153666Y0128453D01*
X0154150Y0128937D01*
X0154150Y0129905D01*
X0153666Y0130388D01*
X0151731Y0130388D01*
X0151248Y0127442D02*
X0154150Y0127442D01*
X0152215Y0126474D02*
X0151248Y0127442D01*
X0152215Y0126474D02*
X0151248Y0125507D01*
X0154150Y0125507D01*
X0153666Y0121281D02*
X0152699Y0121281D01*
X0152699Y0120314D01*
X0153666Y0119347D02*
X0151731Y0119347D01*
X0151248Y0119830D01*
X0151248Y0120798D01*
X0151731Y0121281D01*
X0153666Y0121281D02*
X0154150Y0120798D01*
X0154150Y0119830D01*
X0153666Y0119347D01*
X0153666Y0118335D02*
X0151731Y0118335D01*
X0151248Y0117851D01*
X0151248Y0116884D01*
X0151731Y0116400D01*
X0153666Y0116400D01*
X0154150Y0116884D01*
X0154150Y0117851D01*
X0153666Y0118335D01*
X0154150Y0115388D02*
X0154150Y0113453D01*
X0151248Y0113453D01*
X0152215Y0112442D02*
X0154150Y0112442D01*
X0152699Y0112442D02*
X0152699Y0110507D01*
X0152215Y0110507D02*
X0151248Y0111474D01*
X0152215Y0112442D01*
X0152215Y0110507D02*
X0154150Y0110507D01*
X0154150Y0107264D02*
X0151248Y0105329D01*
X0151248Y0104317D02*
X0151248Y0102382D01*
X0151248Y0103350D02*
X0154150Y0103350D01*
X0154150Y0105329D02*
X0151248Y0107264D01*
X0152699Y0101371D02*
X0152699Y0099436D01*
X0152699Y0098424D02*
X0153183Y0097940D01*
X0153183Y0096489D01*
X0154150Y0096489D02*
X0151248Y0096489D01*
X0151248Y0097940D01*
X0151731Y0098424D01*
X0152699Y0098424D01*
X0153183Y0097457D02*
X0154150Y0098424D01*
X0154150Y0095492D02*
X0154150Y0094525D01*
X0154150Y0095009D02*
X0151248Y0095009D01*
X0151248Y0095492D02*
X0151248Y0094525D01*
X0151248Y0092264D02*
X0154150Y0090329D01*
X0154150Y0089317D02*
X0153183Y0088350D01*
X0153183Y0088833D02*
X0153183Y0087382D01*
X0154150Y0087382D02*
X0151248Y0087382D01*
X0151248Y0088833D01*
X0151731Y0089317D01*
X0152699Y0089317D01*
X0153183Y0088833D01*
X0151248Y0090329D02*
X0154150Y0092264D01*
X0152699Y0086371D02*
X0152699Y0084436D01*
X0152699Y0083424D02*
X0153183Y0082940D01*
X0153183Y0081489D01*
X0154150Y0081489D02*
X0151248Y0081489D01*
X0151248Y0082940D01*
X0151731Y0083424D01*
X0152699Y0083424D01*
X0153183Y0082457D02*
X0154150Y0083424D01*
X0154150Y0080492D02*
X0154150Y0079525D01*
X0154150Y0080009D02*
X0151248Y0080009D01*
X0151248Y0080492D02*
X0151248Y0079525D01*
X0151731Y0076281D02*
X0152699Y0076281D01*
X0153183Y0075798D01*
X0153183Y0074347D01*
X0154150Y0074347D02*
X0151248Y0074347D01*
X0151248Y0075798D01*
X0151731Y0076281D01*
X0151248Y0073335D02*
X0154150Y0073335D01*
X0154150Y0071400D02*
X0151248Y0071400D01*
X0152215Y0072367D01*
X0151248Y0073335D01*
X0151248Y0070388D02*
X0151248Y0068453D01*
X0154150Y0068453D01*
X0154150Y0070388D01*
X0152699Y0069421D02*
X0152699Y0068453D01*
X0151248Y0067442D02*
X0151248Y0065507D01*
X0151248Y0066474D02*
X0154150Y0066474D01*
X0185950Y0039819D02*
X0186434Y0040302D01*
X0187401Y0040302D01*
X0187885Y0039819D01*
X0187885Y0037884D01*
X0187401Y0037400D01*
X0186434Y0037400D01*
X0185950Y0037884D01*
X0185950Y0039819D01*
X0186917Y0038367D02*
X0187885Y0037400D01*
X0188897Y0037400D02*
X0190831Y0037400D01*
X0189864Y0037400D02*
X0189864Y0040302D01*
X0188897Y0039335D01*
D17*
X0146800Y0041250D02*
X0146800Y0001250D01*
X0046800Y0001250D01*
X0046800Y0041250D01*
X0046800Y0121250D01*
X0056800Y0121250D01*
X0056800Y0041250D01*
X0046800Y0041250D01*
X0136800Y0041250D02*
X0136800Y0121250D01*
X0146800Y0121250D01*
X0146800Y0041250D01*
X0136800Y0041250D01*
X0146800Y0121250D02*
X0146793Y0121854D01*
X0146771Y0122458D01*
X0146734Y0123061D01*
X0146683Y0123663D01*
X0146618Y0124263D01*
X0146538Y0124862D01*
X0146443Y0125459D01*
X0146334Y0126053D01*
X0146211Y0126645D01*
X0146074Y0127233D01*
X0145922Y0127818D01*
X0145756Y0128399D01*
X0145576Y0128975D01*
X0145383Y0129548D01*
X0145175Y0130115D01*
X0144954Y0130677D01*
X0144720Y0131234D01*
X0144472Y0131785D01*
X0144211Y0132330D01*
X0143936Y0132868D01*
X0143649Y0133400D01*
X0143349Y0133924D01*
X0143037Y0134441D01*
X0142712Y0134950D01*
X0142375Y0135452D01*
X0142025Y0135945D01*
X0141664Y0136429D01*
X0141292Y0136905D01*
X0140908Y0137371D01*
X0140513Y0137828D01*
X0140107Y0138275D01*
X0139690Y0138713D01*
X0139263Y0139140D01*
X0138825Y0139557D01*
X0138378Y0139963D01*
X0137921Y0140358D01*
X0137455Y0140742D01*
X0136979Y0141114D01*
X0136495Y0141475D01*
X0136002Y0141825D01*
X0135500Y0142162D01*
X0134991Y0142487D01*
X0134474Y0142799D01*
X0133950Y0143099D01*
X0133418Y0143386D01*
X0132880Y0143661D01*
X0132335Y0143922D01*
X0131784Y0144170D01*
X0131227Y0144404D01*
X0130665Y0144625D01*
X0130098Y0144833D01*
X0129525Y0145026D01*
X0128949Y0145206D01*
X0128368Y0145372D01*
X0127783Y0145524D01*
X0127195Y0145661D01*
X0126603Y0145784D01*
X0126009Y0145893D01*
X0125412Y0145988D01*
X0124813Y0146068D01*
X0124213Y0146133D01*
X0123611Y0146184D01*
X0123008Y0146221D01*
X0122404Y0146243D01*
X0121800Y0146250D01*
X0071800Y0146250D01*
X0071196Y0146243D01*
X0070592Y0146221D01*
X0069989Y0146184D01*
X0069387Y0146133D01*
X0068787Y0146068D01*
X0068188Y0145988D01*
X0067591Y0145893D01*
X0066997Y0145784D01*
X0066405Y0145661D01*
X0065817Y0145524D01*
X0065232Y0145372D01*
X0064651Y0145206D01*
X0064075Y0145026D01*
X0063502Y0144833D01*
X0062935Y0144625D01*
X0062373Y0144404D01*
X0061816Y0144170D01*
X0061265Y0143922D01*
X0060720Y0143661D01*
X0060182Y0143386D01*
X0059650Y0143099D01*
X0059126Y0142799D01*
X0058609Y0142487D01*
X0058100Y0142162D01*
X0057598Y0141825D01*
X0057105Y0141475D01*
X0056621Y0141114D01*
X0056145Y0140742D01*
X0055679Y0140358D01*
X0055222Y0139963D01*
X0054775Y0139557D01*
X0054337Y0139140D01*
X0053910Y0138713D01*
X0053493Y0138275D01*
X0053087Y0137828D01*
X0052692Y0137371D01*
X0052308Y0136905D01*
X0051936Y0136429D01*
X0051575Y0135945D01*
X0051225Y0135452D01*
X0050888Y0134950D01*
X0050563Y0134441D01*
X0050251Y0133924D01*
X0049951Y0133400D01*
X0049664Y0132868D01*
X0049389Y0132330D01*
X0049128Y0131785D01*
X0048880Y0131234D01*
X0048646Y0130677D01*
X0048425Y0130115D01*
X0048217Y0129548D01*
X0048024Y0128975D01*
X0047844Y0128399D01*
X0047678Y0127818D01*
X0047526Y0127233D01*
X0047389Y0126645D01*
X0047266Y0126053D01*
X0047157Y0125459D01*
X0047062Y0124862D01*
X0046982Y0124263D01*
X0046917Y0123663D01*
X0046866Y0123061D01*
X0046829Y0122458D01*
X0046807Y0121854D01*
X0046800Y0121250D01*
D18*
X0021800Y0056250D03*
X0171800Y0056250D03*
M02*
