%
M48
M72
T01C0.02000
T02C0.04000
T03C0.04400
%
T01
X21800Y146250
X81800Y121250
X91800Y86250
X141800Y131250
X111800Y76250
X71800Y96250
X41800Y101250
X6800Y31250
X56800Y18750
X131800Y36250
X44300Y38750
X91800Y48750
X136800Y16250
X186800Y31250
X149300Y93750
X44300Y113750
X151800Y36250
X151800Y116250
X6800Y96250
X81800Y141250
X111800Y141250
X111800Y121250
X111800Y101250
T02
X51800Y116250
X51800Y106250
X51800Y96250
X51800Y86250
X51800Y76250
X51800Y66250
X51800Y56250
X51800Y46250
X141800Y116250
X141800Y106250
X141800Y96250
X141800Y86250
X141800Y76250
X141800Y66250
X141800Y56250
X141800Y46250
X161800Y71250
X171800Y71250
X181800Y71250
X161800Y101250
X171800Y101250
X181800Y101250
X161800Y86250
X171800Y86250
X181800Y86250
X161800Y131250
X171800Y131250
X181800Y131250
X31800Y71250
X31800Y81250
X31800Y91250
X31800Y101250
X16800Y71250
X16800Y81250
X16800Y91250
X16800Y101250
X11800Y131250
X21800Y131250
X31800Y131250
X11800Y116250
X21800Y116250
X31800Y116250
X161800Y46250
X171800Y46250
X181800Y46250
X11800Y46250
X21800Y46250
X31800Y46250
X161800Y116250
X171800Y116250
X181800Y116250
T03
X101682Y25738
X91682Y25738
X171800Y26250
X161800Y26250
X21800Y26250
X31800Y26250
M30
