G75*
%MOIN*%
%OFA0B0*%
%FSLAX25Y25*%
%IPPOS*%
%LPD*%
%AMOC8*
5,1,8,0,0,1.08239X$1,22.5*
%
%ADD10C,0.01000*%
%ADD11C,0.07400*%
%ADD12R,0.07400X0.07400*%
%ADD13C,0.07400*%
%ADD14C,0.06000*%
%ADD15C,0.01600*%
%ADD16C,0.03200*%
%ADD17C,0.04000*%
%ADD18C,0.02400*%
D10*
X0021800Y0011250D02*
X0171800Y0011250D01*
X0172283Y0011256D01*
X0172766Y0011273D01*
X0173249Y0011303D01*
X0173730Y0011343D01*
X0174211Y0011396D01*
X0174690Y0011460D01*
X0175167Y0011535D01*
X0175643Y0011623D01*
X0176116Y0011721D01*
X0176586Y0011831D01*
X0177054Y0011952D01*
X0177519Y0012085D01*
X0177980Y0012229D01*
X0178438Y0012384D01*
X0178892Y0012550D01*
X0179342Y0012727D01*
X0179787Y0012914D01*
X0180228Y0013113D01*
X0180664Y0013321D01*
X0181094Y0013541D01*
X0181520Y0013771D01*
X0181939Y0014011D01*
X0182353Y0014261D01*
X0182760Y0014521D01*
X0183161Y0014790D01*
X0183556Y0015070D01*
X0183943Y0015358D01*
X0184324Y0015657D01*
X0184697Y0015964D01*
X0185062Y0016280D01*
X0185420Y0016605D01*
X0185770Y0016938D01*
X0186112Y0017280D01*
X0186445Y0017630D01*
X0186770Y0017988D01*
X0187086Y0018353D01*
X0187393Y0018726D01*
X0187692Y0019107D01*
X0187980Y0019494D01*
X0188260Y0019889D01*
X0188529Y0020290D01*
X0188789Y0020697D01*
X0189039Y0021111D01*
X0189279Y0021530D01*
X0189509Y0021956D01*
X0189729Y0022386D01*
X0189937Y0022822D01*
X0190136Y0023263D01*
X0190323Y0023708D01*
X0190500Y0024158D01*
X0190666Y0024612D01*
X0190821Y0025070D01*
X0190965Y0025531D01*
X0191098Y0025996D01*
X0191219Y0026464D01*
X0191329Y0026934D01*
X0191427Y0027407D01*
X0191515Y0027883D01*
X0191590Y0028360D01*
X0191654Y0028839D01*
X0191707Y0029320D01*
X0191747Y0029801D01*
X0191777Y0030284D01*
X0191794Y0030767D01*
X0191800Y0031250D01*
X0191800Y0136250D01*
X0191793Y0136854D01*
X0191771Y0137458D01*
X0191734Y0138061D01*
X0191683Y0138663D01*
X0191618Y0139263D01*
X0191538Y0139862D01*
X0191443Y0140459D01*
X0191334Y0141053D01*
X0191211Y0141645D01*
X0191074Y0142233D01*
X0190922Y0142818D01*
X0190756Y0143399D01*
X0190576Y0143975D01*
X0190383Y0144548D01*
X0190175Y0145115D01*
X0189954Y0145677D01*
X0189720Y0146234D01*
X0189472Y0146785D01*
X0189211Y0147330D01*
X0188936Y0147868D01*
X0188649Y0148400D01*
X0188349Y0148924D01*
X0188037Y0149441D01*
X0187712Y0149950D01*
X0187375Y0150452D01*
X0187025Y0150945D01*
X0186664Y0151429D01*
X0186292Y0151905D01*
X0185908Y0152371D01*
X0185513Y0152828D01*
X0185107Y0153275D01*
X0184690Y0153713D01*
X0184263Y0154140D01*
X0183825Y0154557D01*
X0183378Y0154963D01*
X0182921Y0155358D01*
X0182455Y0155742D01*
X0181979Y0156114D01*
X0181495Y0156475D01*
X0181002Y0156825D01*
X0180500Y0157162D01*
X0179991Y0157487D01*
X0179474Y0157799D01*
X0178950Y0158099D01*
X0178418Y0158386D01*
X0177880Y0158661D01*
X0177335Y0158922D01*
X0176784Y0159170D01*
X0176227Y0159404D01*
X0175665Y0159625D01*
X0175098Y0159833D01*
X0174525Y0160026D01*
X0173949Y0160206D01*
X0173368Y0160372D01*
X0172783Y0160524D01*
X0172195Y0160661D01*
X0171603Y0160784D01*
X0171009Y0160893D01*
X0170412Y0160988D01*
X0169813Y0161068D01*
X0169213Y0161133D01*
X0168611Y0161184D01*
X0168008Y0161221D01*
X0167404Y0161243D01*
X0166800Y0161250D01*
X0026800Y0161250D01*
X0026196Y0161243D01*
X0025592Y0161221D01*
X0024989Y0161184D01*
X0024387Y0161133D01*
X0023787Y0161068D01*
X0023188Y0160988D01*
X0022591Y0160893D01*
X0021997Y0160784D01*
X0021405Y0160661D01*
X0020817Y0160524D01*
X0020232Y0160372D01*
X0019651Y0160206D01*
X0019075Y0160026D01*
X0018502Y0159833D01*
X0017935Y0159625D01*
X0017373Y0159404D01*
X0016816Y0159170D01*
X0016265Y0158922D01*
X0015720Y0158661D01*
X0015182Y0158386D01*
X0014650Y0158099D01*
X0014126Y0157799D01*
X0013609Y0157487D01*
X0013100Y0157162D01*
X0012598Y0156825D01*
X0012105Y0156475D01*
X0011621Y0156114D01*
X0011145Y0155742D01*
X0010679Y0155358D01*
X0010222Y0154963D01*
X0009775Y0154557D01*
X0009337Y0154140D01*
X0008910Y0153713D01*
X0008493Y0153275D01*
X0008087Y0152828D01*
X0007692Y0152371D01*
X0007308Y0151905D01*
X0006936Y0151429D01*
X0006575Y0150945D01*
X0006225Y0150452D01*
X0005888Y0149950D01*
X0005563Y0149441D01*
X0005251Y0148924D01*
X0004951Y0148400D01*
X0004664Y0147868D01*
X0004389Y0147330D01*
X0004128Y0146785D01*
X0003880Y0146234D01*
X0003646Y0145677D01*
X0003425Y0145115D01*
X0003217Y0144548D01*
X0003024Y0143975D01*
X0002844Y0143399D01*
X0002678Y0142818D01*
X0002526Y0142233D01*
X0002389Y0141645D01*
X0002266Y0141053D01*
X0002157Y0140459D01*
X0002062Y0139862D01*
X0001982Y0139263D01*
X0001917Y0138663D01*
X0001866Y0138061D01*
X0001829Y0137458D01*
X0001807Y0136854D01*
X0001800Y0136250D01*
X0001800Y0031250D01*
X0001806Y0030767D01*
X0001823Y0030284D01*
X0001853Y0029801D01*
X0001893Y0029320D01*
X0001946Y0028839D01*
X0002010Y0028360D01*
X0002085Y0027883D01*
X0002173Y0027407D01*
X0002271Y0026934D01*
X0002381Y0026464D01*
X0002502Y0025996D01*
X0002635Y0025531D01*
X0002779Y0025070D01*
X0002934Y0024612D01*
X0003100Y0024158D01*
X0003277Y0023708D01*
X0003464Y0023263D01*
X0003663Y0022822D01*
X0003871Y0022386D01*
X0004091Y0021956D01*
X0004321Y0021530D01*
X0004561Y0021111D01*
X0004811Y0020697D01*
X0005071Y0020290D01*
X0005340Y0019889D01*
X0005620Y0019494D01*
X0005908Y0019107D01*
X0006207Y0018726D01*
X0006514Y0018353D01*
X0006830Y0017988D01*
X0007155Y0017630D01*
X0007488Y0017280D01*
X0007830Y0016938D01*
X0008180Y0016605D01*
X0008538Y0016280D01*
X0008903Y0015964D01*
X0009276Y0015657D01*
X0009657Y0015358D01*
X0010044Y0015070D01*
X0010439Y0014790D01*
X0010840Y0014521D01*
X0011247Y0014261D01*
X0011661Y0014011D01*
X0012080Y0013771D01*
X0012506Y0013541D01*
X0012936Y0013321D01*
X0013372Y0013113D01*
X0013813Y0012914D01*
X0014258Y0012727D01*
X0014708Y0012550D01*
X0015162Y0012384D01*
X0015620Y0012229D01*
X0016081Y0012085D01*
X0016546Y0011952D01*
X0017014Y0011831D01*
X0017484Y0011721D01*
X0017957Y0011623D01*
X0018433Y0011535D01*
X0018910Y0011460D01*
X0019389Y0011396D01*
X0019870Y0011343D01*
X0020351Y0011303D01*
X0020834Y0011273D01*
X0021317Y0011256D01*
X0021800Y0011250D01*
D11*
X0051800Y0046250D03*
X0051800Y0056250D03*
X0051800Y0066250D03*
X0051800Y0076250D03*
X0051800Y0086250D03*
X0051800Y0096250D03*
X0051800Y0106250D03*
X0051800Y0116250D03*
X0031800Y0116250D03*
X0021800Y0116250D03*
X0011800Y0116250D03*
X0011800Y0131250D03*
X0021800Y0131250D03*
X0031800Y0131250D03*
X0031800Y0101250D03*
X0031800Y0091250D03*
X0031800Y0081250D03*
X0016800Y0081250D03*
X0016800Y0091250D03*
X0016800Y0101250D03*
X0141800Y0096250D03*
X0141800Y0106250D03*
X0141800Y0116250D03*
X0161800Y0116250D03*
X0171800Y0116250D03*
X0181800Y0116250D03*
X0181800Y0101250D03*
X0171800Y0101250D03*
X0161800Y0101250D03*
X0161800Y0086250D03*
X0171800Y0086250D03*
X0181800Y0086250D03*
X0181800Y0071250D03*
X0171800Y0071250D03*
X0161800Y0071250D03*
X0141800Y0066250D03*
X0141800Y0056250D03*
X0141800Y0046250D03*
X0141800Y0076250D03*
X0141800Y0086250D03*
X0161800Y0131250D03*
X0171800Y0131250D03*
X0181800Y0131250D03*
D12*
X0031800Y0071250D03*
X0016800Y0071250D03*
D13*
X0021800Y0029950D02*
X0021800Y0022550D01*
X0031800Y0022550D02*
X0031800Y0029950D01*
X0091682Y0029438D02*
X0091682Y0022038D01*
X0101682Y0022038D02*
X0101682Y0029438D01*
X0161800Y0029950D02*
X0161800Y0022550D01*
X0171800Y0022550D02*
X0171800Y0029950D01*
D14*
X0171800Y0043250D02*
X0171800Y0049250D01*
X0161800Y0049250D02*
X0161800Y0043250D01*
X0181800Y0043250D02*
X0181800Y0049250D01*
X0031800Y0049250D02*
X0031800Y0043250D01*
X0021800Y0043250D02*
X0021800Y0049250D01*
X0011800Y0049250D02*
X0011800Y0043250D01*
D15*
X0017269Y0014447D02*
X0176331Y0014447D01*
X0177580Y0014732D02*
X0173759Y0013860D01*
X0171800Y0013750D01*
X0021800Y0013750D01*
X0019841Y0013860D01*
X0016020Y0014732D01*
X0012489Y0016432D01*
X0009426Y0018876D01*
X0006982Y0021939D01*
X0005282Y0025470D01*
X0004410Y0029291D01*
X0004300Y0031250D01*
X0004300Y0136250D01*
X0004441Y0138769D01*
X0005563Y0143681D01*
X0007749Y0148221D01*
X0010890Y0152160D01*
X0014829Y0155301D01*
X0019369Y0157487D01*
X0024281Y0158609D01*
X0026800Y0158750D01*
X0166800Y0158750D01*
X0169319Y0158609D01*
X0174231Y0157487D01*
X0178771Y0155301D01*
X0182710Y0152160D01*
X0185851Y0148221D01*
X0188037Y0143681D01*
X0189159Y0138769D01*
X0189300Y0136250D01*
X0189300Y0031250D01*
X0189190Y0029291D01*
X0188318Y0025470D01*
X0186618Y0021939D01*
X0184174Y0018876D01*
X0181111Y0016432D01*
X0177580Y0014732D01*
X0175029Y0017718D02*
X0176632Y0019321D01*
X0177500Y0021416D01*
X0177500Y0031084D01*
X0176632Y0033179D01*
X0175029Y0034782D01*
X0172934Y0035650D01*
X0170666Y0035650D01*
X0168571Y0034782D01*
X0166968Y0033179D01*
X0166800Y0032774D01*
X0166632Y0033179D01*
X0165029Y0034782D01*
X0162934Y0035650D01*
X0160666Y0035650D01*
X0158571Y0034782D01*
X0156968Y0033179D01*
X0156100Y0031084D01*
X0156100Y0021416D01*
X0156968Y0019321D01*
X0158571Y0017718D01*
X0160666Y0016850D01*
X0162934Y0016850D01*
X0165029Y0017718D01*
X0166632Y0019321D01*
X0166800Y0019726D01*
X0166968Y0019321D01*
X0168571Y0017718D01*
X0170666Y0016850D01*
X0172934Y0016850D01*
X0175029Y0017718D01*
X0174851Y0017644D02*
X0182630Y0017644D01*
X0184467Y0019243D02*
X0176554Y0019243D01*
X0177262Y0020841D02*
X0185742Y0020841D01*
X0186859Y0022440D02*
X0177500Y0022440D01*
X0177500Y0024038D02*
X0187628Y0024038D01*
X0188356Y0025637D02*
X0177500Y0025637D01*
X0177500Y0027235D02*
X0188721Y0027235D01*
X0189086Y0028834D02*
X0177500Y0028834D01*
X0177500Y0030432D02*
X0189254Y0030432D01*
X0189300Y0032031D02*
X0177108Y0032031D01*
X0176182Y0033629D02*
X0189300Y0033629D01*
X0189300Y0035228D02*
X0173953Y0035228D01*
X0172795Y0038250D02*
X0170805Y0038250D01*
X0168968Y0039011D01*
X0167561Y0040418D01*
X0166800Y0042255D01*
X0166800Y0050245D01*
X0167561Y0052082D01*
X0168968Y0053489D01*
X0170805Y0054250D01*
X0172795Y0054250D01*
X0174632Y0053489D01*
X0176039Y0052082D01*
X0176800Y0050245D01*
X0176800Y0042255D01*
X0176039Y0040418D01*
X0174632Y0039011D01*
X0172795Y0038250D01*
X0173216Y0038425D02*
X0189300Y0038425D01*
X0189300Y0040023D02*
X0185361Y0040023D01*
X0185461Y0040123D02*
X0185905Y0040734D01*
X0186248Y0041407D01*
X0186482Y0042126D01*
X0186600Y0042872D01*
X0186600Y0046050D01*
X0182000Y0046050D01*
X0182000Y0046450D01*
X0186600Y0046450D01*
X0186600Y0049628D01*
X0186482Y0050374D01*
X0186248Y0051093D01*
X0185905Y0051766D01*
X0185461Y0052377D01*
X0184927Y0052911D01*
X0184316Y0053355D01*
X0183643Y0053698D01*
X0182924Y0053932D01*
X0182178Y0054050D01*
X0182000Y0054050D01*
X0182000Y0046450D01*
X0181600Y0046450D01*
X0181600Y0054050D01*
X0181422Y0054050D01*
X0180676Y0053932D01*
X0179957Y0053698D01*
X0179284Y0053355D01*
X0178673Y0052911D01*
X0178139Y0052377D01*
X0177695Y0051766D01*
X0177352Y0051093D01*
X0177118Y0050374D01*
X0177000Y0049628D01*
X0177000Y0046450D01*
X0181600Y0046450D01*
X0181600Y0046050D01*
X0182000Y0046050D01*
X0182000Y0038450D01*
X0182178Y0038450D01*
X0182924Y0038568D01*
X0183643Y0038802D01*
X0184316Y0039145D01*
X0184927Y0039589D01*
X0185461Y0040123D01*
X0186318Y0041622D02*
X0189300Y0041622D01*
X0189300Y0043220D02*
X0186600Y0043220D01*
X0186600Y0044819D02*
X0189300Y0044819D01*
X0189300Y0046417D02*
X0182000Y0046417D01*
X0181600Y0046417D02*
X0176800Y0046417D01*
X0177000Y0046050D02*
X0177000Y0042872D01*
X0177118Y0042126D01*
X0177352Y0041407D01*
X0177695Y0040734D01*
X0178139Y0040123D01*
X0178673Y0039589D01*
X0179284Y0039145D01*
X0179957Y0038802D01*
X0180676Y0038568D01*
X0181422Y0038450D01*
X0181600Y0038450D01*
X0181600Y0046050D01*
X0177000Y0046050D01*
X0177000Y0044819D02*
X0176800Y0044819D01*
X0176800Y0043220D02*
X0177000Y0043220D01*
X0177282Y0041622D02*
X0176537Y0041622D01*
X0175644Y0040023D02*
X0178239Y0040023D01*
X0181600Y0040023D02*
X0182000Y0040023D01*
X0182000Y0041622D02*
X0181600Y0041622D01*
X0181600Y0043220D02*
X0182000Y0043220D01*
X0182000Y0044819D02*
X0181600Y0044819D01*
X0181600Y0048016D02*
X0182000Y0048016D01*
X0182000Y0049614D02*
X0181600Y0049614D01*
X0181600Y0051213D02*
X0182000Y0051213D01*
X0182000Y0052811D02*
X0181600Y0052811D01*
X0178573Y0052811D02*
X0175310Y0052811D01*
X0176399Y0051213D02*
X0177413Y0051213D01*
X0177000Y0049614D02*
X0176800Y0049614D01*
X0176800Y0048016D02*
X0177000Y0048016D01*
X0185027Y0052811D02*
X0189300Y0052811D01*
X0189300Y0051213D02*
X0186187Y0051213D01*
X0186600Y0049614D02*
X0189300Y0049614D01*
X0189300Y0048016D02*
X0186600Y0048016D01*
X0189300Y0054410D02*
X0164990Y0054410D01*
X0165000Y0054387D02*
X0164513Y0055563D01*
X0163613Y0056463D01*
X0151406Y0068670D01*
X0150229Y0069157D01*
X0149522Y0069450D01*
X0146644Y0069450D01*
X0146632Y0069479D01*
X0145029Y0071082D01*
X0144624Y0071250D01*
X0145029Y0071418D01*
X0146632Y0073021D01*
X0147500Y0075116D01*
X0147500Y0077384D01*
X0146632Y0079479D01*
X0145029Y0081082D01*
X0144624Y0081250D01*
X0145029Y0081418D01*
X0146632Y0083021D01*
X0146644Y0083050D01*
X0149721Y0083050D01*
X0151265Y0083689D01*
X0151406Y0083830D01*
X0151643Y0084068D01*
X0151856Y0084280D01*
X0152306Y0084730D01*
X0152306Y0084730D01*
X0158125Y0090550D01*
X0158361Y0090550D01*
X0158217Y0090445D01*
X0157605Y0089833D01*
X0157096Y0089133D01*
X0156703Y0088361D01*
X0156435Y0087538D01*
X0156300Y0086683D01*
X0156300Y0086450D01*
X0161600Y0086450D01*
X0161600Y0086050D01*
X0162000Y0086050D01*
X0162000Y0080750D01*
X0162233Y0080750D01*
X0163088Y0080885D01*
X0163911Y0081153D01*
X0164683Y0081546D01*
X0165383Y0082055D01*
X0165995Y0082667D01*
X0166504Y0083367D01*
X0166681Y0083714D01*
X0166968Y0083021D01*
X0168571Y0081418D01*
X0170666Y0080550D01*
X0172934Y0080550D01*
X0175029Y0081418D01*
X0176632Y0083021D01*
X0176800Y0083426D01*
X0176968Y0083021D01*
X0178571Y0081418D01*
X0180666Y0080550D01*
X0182934Y0080550D01*
X0185029Y0081418D01*
X0186632Y0083021D01*
X0187500Y0085116D01*
X0187500Y0087384D01*
X0186632Y0089479D01*
X0185029Y0091082D01*
X0182934Y0091950D01*
X0180666Y0091950D01*
X0178571Y0091082D01*
X0176968Y0089479D01*
X0176800Y0089074D01*
X0176632Y0089479D01*
X0175029Y0091082D01*
X0173261Y0091814D01*
X0168906Y0096170D01*
X0167729Y0096657D01*
X0167022Y0096950D01*
X0165239Y0096950D01*
X0165383Y0097055D01*
X0165995Y0097667D01*
X0166504Y0098367D01*
X0166681Y0098714D01*
X0166968Y0098021D01*
X0168571Y0096418D01*
X0170666Y0095550D01*
X0172934Y0095550D01*
X0175029Y0096418D01*
X0176632Y0098021D01*
X0176800Y0098426D01*
X0176968Y0098021D01*
X0178571Y0096418D01*
X0180666Y0095550D01*
X0182934Y0095550D01*
X0185029Y0096418D01*
X0186632Y0098021D01*
X0187500Y0100116D01*
X0187500Y0102384D01*
X0186632Y0104479D01*
X0185029Y0106082D01*
X0182934Y0106950D01*
X0180666Y0106950D01*
X0178571Y0106082D01*
X0176968Y0104479D01*
X0176800Y0104074D01*
X0176632Y0104479D01*
X0175029Y0106082D01*
X0172934Y0106950D01*
X0170666Y0106950D01*
X0168571Y0106082D01*
X0166968Y0104479D01*
X0166681Y0103786D01*
X0166504Y0104133D01*
X0165995Y0104833D01*
X0165383Y0105445D01*
X0164683Y0105954D01*
X0163911Y0106347D01*
X0163088Y0106615D01*
X0162233Y0106750D01*
X0162000Y0106750D01*
X0162000Y0101450D01*
X0161600Y0101450D01*
X0161600Y0106750D01*
X0161367Y0106750D01*
X0160512Y0106615D01*
X0159689Y0106347D01*
X0158917Y0105954D01*
X0158217Y0105445D01*
X0157605Y0104833D01*
X0157096Y0104133D01*
X0156703Y0103361D01*
X0156435Y0102538D01*
X0156300Y0101683D01*
X0156300Y0101450D01*
X0161600Y0101450D01*
X0161600Y0101050D01*
X0156300Y0101050D01*
X0156300Y0100817D01*
X0156435Y0099962D01*
X0156703Y0099139D01*
X0157096Y0098367D01*
X0157605Y0097667D01*
X0158217Y0097055D01*
X0158361Y0096950D01*
X0156163Y0096950D01*
X0154987Y0096463D01*
X0154087Y0095563D01*
X0154087Y0095563D01*
X0147975Y0089450D01*
X0146644Y0089450D01*
X0146632Y0089479D01*
X0145029Y0091082D01*
X0144624Y0091250D01*
X0145029Y0091418D01*
X0146632Y0093021D01*
X0147500Y0095116D01*
X0147500Y0097384D01*
X0146632Y0099479D01*
X0145029Y0101082D01*
X0144624Y0101250D01*
X0145029Y0101418D01*
X0146632Y0103021D01*
X0147500Y0105116D01*
X0147500Y0107384D01*
X0146632Y0109479D01*
X0145029Y0111082D01*
X0144624Y0111250D01*
X0145029Y0111418D01*
X0146632Y0113021D01*
X0147500Y0115116D01*
X0147500Y0117384D01*
X0146632Y0119479D01*
X0145029Y0121082D01*
X0142934Y0121950D01*
X0140666Y0121950D01*
X0138571Y0121082D01*
X0136968Y0119479D01*
X0136100Y0117384D01*
X0136100Y0115116D01*
X0136968Y0113021D01*
X0138571Y0111418D01*
X0138976Y0111250D01*
X0138571Y0111082D01*
X0136968Y0109479D01*
X0136100Y0107384D01*
X0136100Y0105116D01*
X0136968Y0103021D01*
X0138571Y0101418D01*
X0138976Y0101250D01*
X0138571Y0101082D01*
X0136968Y0099479D01*
X0136100Y0097384D01*
X0136100Y0095116D01*
X0136968Y0093021D01*
X0138571Y0091418D01*
X0138976Y0091250D01*
X0138571Y0091082D01*
X0136968Y0089479D01*
X0136100Y0087384D01*
X0136100Y0085116D01*
X0136968Y0083021D01*
X0138571Y0081418D01*
X0138976Y0081250D01*
X0138571Y0081082D01*
X0136968Y0079479D01*
X0136100Y0077384D01*
X0136100Y0075116D01*
X0136968Y0073021D01*
X0138571Y0071418D01*
X0138976Y0071250D01*
X0138571Y0071082D01*
X0136968Y0069479D01*
X0136100Y0067384D01*
X0136100Y0065116D01*
X0136968Y0063021D01*
X0138571Y0061418D01*
X0138976Y0061250D01*
X0138571Y0061082D01*
X0136968Y0059479D01*
X0136100Y0057384D01*
X0136100Y0055116D01*
X0136968Y0053021D01*
X0138571Y0051418D01*
X0138976Y0051250D01*
X0138571Y0051082D01*
X0136968Y0049479D01*
X0136100Y0047384D01*
X0136100Y0045116D01*
X0136968Y0043021D01*
X0138571Y0041418D01*
X0140666Y0040550D01*
X0142934Y0040550D01*
X0145029Y0041418D01*
X0146632Y0043021D01*
X0147500Y0045116D01*
X0147500Y0047384D01*
X0146632Y0049479D01*
X0145029Y0051082D01*
X0144624Y0051250D01*
X0145029Y0051418D01*
X0146632Y0053021D01*
X0147500Y0055116D01*
X0147500Y0057384D01*
X0146632Y0059479D01*
X0145029Y0061082D01*
X0144624Y0061250D01*
X0145029Y0061418D01*
X0146632Y0063021D01*
X0146644Y0063050D01*
X0147975Y0063050D01*
X0158252Y0052773D01*
X0157561Y0052082D01*
X0156800Y0050245D01*
X0156800Y0042255D01*
X0157561Y0040418D01*
X0158968Y0039011D01*
X0160805Y0038250D01*
X0162795Y0038250D01*
X0164632Y0039011D01*
X0166039Y0040418D01*
X0166800Y0042255D01*
X0166800Y0050245D01*
X0166039Y0052082D01*
X0165000Y0053121D01*
X0165000Y0054387D01*
X0165310Y0052811D02*
X0168290Y0052811D01*
X0167201Y0051213D02*
X0166399Y0051213D01*
X0166800Y0049614D02*
X0166800Y0049614D01*
X0166800Y0048016D02*
X0166800Y0048016D01*
X0166800Y0046417D02*
X0166800Y0046417D01*
X0166800Y0044819D02*
X0166800Y0044819D01*
X0166800Y0043220D02*
X0166800Y0043220D01*
X0166537Y0041622D02*
X0167062Y0041622D01*
X0167956Y0040023D02*
X0165644Y0040023D01*
X0163216Y0038425D02*
X0170384Y0038425D01*
X0169647Y0035228D02*
X0163953Y0035228D01*
X0166182Y0033629D02*
X0167418Y0033629D01*
X0159647Y0035228D02*
X0033953Y0035228D01*
X0032934Y0035650D02*
X0030666Y0035650D01*
X0028571Y0034782D01*
X0026968Y0033179D01*
X0026800Y0032774D01*
X0026632Y0033179D01*
X0025029Y0034782D01*
X0022934Y0035650D01*
X0020666Y0035650D01*
X0018571Y0034782D01*
X0016968Y0033179D01*
X0016100Y0031084D01*
X0016100Y0021416D01*
X0016968Y0019321D01*
X0018571Y0017718D01*
X0020666Y0016850D01*
X0022934Y0016850D01*
X0025029Y0017718D01*
X0026632Y0019321D01*
X0026800Y0019726D01*
X0026968Y0019321D01*
X0028571Y0017718D01*
X0030666Y0016850D01*
X0032934Y0016850D01*
X0035029Y0017718D01*
X0036632Y0019321D01*
X0037500Y0021416D01*
X0037500Y0031084D01*
X0036632Y0033179D01*
X0035029Y0034782D01*
X0032934Y0035650D01*
X0029647Y0035228D02*
X0023953Y0035228D01*
X0026182Y0033629D02*
X0027418Y0033629D01*
X0029957Y0038802D02*
X0030676Y0038568D01*
X0031422Y0038450D01*
X0031600Y0038450D01*
X0031600Y0046050D01*
X0032000Y0046050D01*
X0032000Y0046450D01*
X0036600Y0046450D01*
X0036600Y0049628D01*
X0036482Y0050374D01*
X0036248Y0051093D01*
X0035905Y0051766D01*
X0035461Y0052377D01*
X0034927Y0052911D01*
X0034316Y0053355D01*
X0033643Y0053698D01*
X0032924Y0053932D01*
X0032178Y0054050D01*
X0032000Y0054050D01*
X0032000Y0046450D01*
X0031600Y0046450D01*
X0031600Y0054050D01*
X0031422Y0054050D01*
X0030676Y0053932D01*
X0029957Y0053698D01*
X0029284Y0053355D01*
X0028673Y0052911D01*
X0028139Y0052377D01*
X0027695Y0051766D01*
X0027352Y0051093D01*
X0027118Y0050374D01*
X0027000Y0049628D01*
X0027000Y0046450D01*
X0031600Y0046450D01*
X0031600Y0046050D01*
X0027000Y0046050D01*
X0027000Y0042872D01*
X0027118Y0042126D01*
X0027352Y0041407D01*
X0027695Y0040734D01*
X0028139Y0040123D01*
X0028673Y0039589D01*
X0029284Y0039145D01*
X0029957Y0038802D01*
X0031600Y0040023D02*
X0032000Y0040023D01*
X0032000Y0038450D02*
X0032178Y0038450D01*
X0032924Y0038568D01*
X0033643Y0038802D01*
X0034316Y0039145D01*
X0034927Y0039589D01*
X0035461Y0040123D01*
X0035905Y0040734D01*
X0036248Y0041407D01*
X0036482Y0042126D01*
X0036600Y0042872D01*
X0036600Y0046050D01*
X0032000Y0046050D01*
X0032000Y0038450D01*
X0032000Y0041622D02*
X0031600Y0041622D01*
X0031600Y0043220D02*
X0032000Y0043220D01*
X0032000Y0044819D02*
X0031600Y0044819D01*
X0031600Y0046417D02*
X0026800Y0046417D01*
X0026800Y0044819D02*
X0027000Y0044819D01*
X0027000Y0043220D02*
X0026800Y0043220D01*
X0026800Y0042255D02*
X0026800Y0050245D01*
X0026039Y0052082D01*
X0024632Y0053489D01*
X0022795Y0054250D01*
X0020805Y0054250D01*
X0018968Y0053489D01*
X0017561Y0052082D01*
X0016800Y0050245D01*
X0016039Y0052082D01*
X0014632Y0053489D01*
X0012795Y0054250D01*
X0010805Y0054250D01*
X0008968Y0053489D01*
X0007561Y0052082D01*
X0006800Y0050245D01*
X0006800Y0042255D01*
X0007561Y0040418D01*
X0008968Y0039011D01*
X0010805Y0038250D01*
X0012795Y0038250D01*
X0014632Y0039011D01*
X0016039Y0040418D01*
X0016800Y0042255D01*
X0016800Y0050245D01*
X0016800Y0042255D01*
X0017561Y0040418D01*
X0018968Y0039011D01*
X0020805Y0038250D01*
X0022795Y0038250D01*
X0024632Y0039011D01*
X0026039Y0040418D01*
X0026800Y0042255D01*
X0026537Y0041622D02*
X0027282Y0041622D01*
X0028239Y0040023D02*
X0025644Y0040023D01*
X0023216Y0038425D02*
X0160384Y0038425D01*
X0157956Y0040023D02*
X0035361Y0040023D01*
X0036318Y0041622D02*
X0048367Y0041622D01*
X0048571Y0041418D02*
X0046968Y0043021D01*
X0046100Y0045116D01*
X0046100Y0047384D01*
X0046968Y0049479D01*
X0048571Y0051082D01*
X0049264Y0051369D01*
X0048917Y0051546D01*
X0048217Y0052055D01*
X0047605Y0052667D01*
X0047096Y0053367D01*
X0046703Y0054139D01*
X0046435Y0054962D01*
X0046300Y0055817D01*
X0046300Y0056050D01*
X0051600Y0056050D01*
X0051600Y0056450D01*
X0046300Y0056450D01*
X0046300Y0056683D01*
X0046435Y0057538D01*
X0046703Y0058361D01*
X0047096Y0059133D01*
X0047605Y0059833D01*
X0048217Y0060445D01*
X0048917Y0060954D01*
X0049264Y0061131D01*
X0048571Y0061418D01*
X0046968Y0063021D01*
X0046100Y0065116D01*
X0046100Y0067384D01*
X0046968Y0069479D01*
X0048571Y0071082D01*
X0048976Y0071250D01*
X0048571Y0071418D01*
X0046968Y0073021D01*
X0046100Y0075116D01*
X0046100Y0077384D01*
X0046968Y0079479D01*
X0048571Y0081082D01*
X0048976Y0081250D01*
X0048571Y0081418D01*
X0046968Y0083021D01*
X0046100Y0085116D01*
X0046100Y0087384D01*
X0046968Y0089479D01*
X0048571Y0091082D01*
X0048976Y0091250D01*
X0048571Y0091418D01*
X0046968Y0093021D01*
X0046100Y0095116D01*
X0046100Y0097384D01*
X0046968Y0099479D01*
X0048571Y0101082D01*
X0048976Y0101250D01*
X0048571Y0101418D01*
X0046968Y0103021D01*
X0046100Y0105116D01*
X0046100Y0105550D01*
X0035561Y0105550D01*
X0036632Y0104479D01*
X0037500Y0102384D01*
X0037500Y0100116D01*
X0036632Y0098021D01*
X0035029Y0096418D01*
X0034624Y0096250D01*
X0035029Y0096082D01*
X0036632Y0094479D01*
X0037500Y0092384D01*
X0037500Y0090116D01*
X0036632Y0088021D01*
X0035029Y0086418D01*
X0034624Y0086250D01*
X0035029Y0086082D01*
X0036632Y0084479D01*
X0037500Y0082384D01*
X0037500Y0080116D01*
X0036632Y0078021D01*
X0035361Y0076750D01*
X0035737Y0076750D01*
X0036195Y0076627D01*
X0036605Y0076390D01*
X0036940Y0076055D01*
X0037177Y0075645D01*
X0037300Y0075187D01*
X0037300Y0071450D01*
X0032000Y0071450D01*
X0032000Y0071050D01*
X0037300Y0071050D01*
X0037300Y0067313D01*
X0037177Y0066855D01*
X0036940Y0066445D01*
X0036605Y0066110D01*
X0036195Y0065873D01*
X0035737Y0065750D01*
X0032000Y0065750D01*
X0032000Y0071050D01*
X0031600Y0071050D01*
X0031600Y0065750D01*
X0027863Y0065750D01*
X0027405Y0065873D01*
X0026995Y0066110D01*
X0026660Y0066445D01*
X0026423Y0066855D01*
X0026300Y0067313D01*
X0026300Y0071050D01*
X0031600Y0071050D01*
X0031600Y0071450D01*
X0026300Y0071450D01*
X0026300Y0075187D01*
X0026423Y0075645D01*
X0026660Y0076055D01*
X0026995Y0076390D01*
X0027405Y0076627D01*
X0027863Y0076750D01*
X0028239Y0076750D01*
X0026968Y0078021D01*
X0026100Y0080116D01*
X0026100Y0082384D01*
X0026968Y0084479D01*
X0028571Y0086082D01*
X0028976Y0086250D01*
X0028571Y0086418D01*
X0026968Y0088021D01*
X0026100Y0090116D01*
X0026100Y0092384D01*
X0026968Y0094479D01*
X0028571Y0096082D01*
X0028976Y0096250D01*
X0028571Y0096418D01*
X0026968Y0098021D01*
X0026100Y0100116D01*
X0026100Y0102384D01*
X0026968Y0104479D01*
X0028039Y0105550D01*
X0026163Y0105550D01*
X0024987Y0106037D01*
X0024087Y0106937D01*
X0020339Y0110686D01*
X0018571Y0111418D01*
X0016968Y0113021D01*
X0016681Y0113714D01*
X0016504Y0113367D01*
X0015995Y0112667D01*
X0015383Y0112055D01*
X0014683Y0111546D01*
X0013911Y0111153D01*
X0013088Y0110885D01*
X0012233Y0110750D01*
X0012000Y0110750D01*
X0012000Y0116050D01*
X0011600Y0116050D01*
X0011600Y0110750D01*
X0011367Y0110750D01*
X0010512Y0110885D01*
X0009689Y0111153D01*
X0008917Y0111546D01*
X0008217Y0112055D01*
X0007605Y0112667D01*
X0007096Y0113367D01*
X0006703Y0114139D01*
X0006435Y0114962D01*
X0006300Y0115817D01*
X0006300Y0116050D01*
X0011600Y0116050D01*
X0011600Y0116450D01*
X0011600Y0121750D01*
X0011367Y0121750D01*
X0010512Y0121615D01*
X0009689Y0121347D01*
X0008917Y0120954D01*
X0008217Y0120445D01*
X0007605Y0119833D01*
X0007096Y0119133D01*
X0006703Y0118361D01*
X0006435Y0117538D01*
X0006300Y0116683D01*
X0006300Y0116450D01*
X0011600Y0116450D01*
X0012000Y0116450D01*
X0012000Y0121750D01*
X0012233Y0121750D01*
X0013088Y0121615D01*
X0013911Y0121347D01*
X0014683Y0120954D01*
X0015383Y0120445D01*
X0015995Y0119833D01*
X0016504Y0119133D01*
X0016681Y0118786D01*
X0016968Y0119479D01*
X0018571Y0121082D01*
X0020666Y0121950D01*
X0022934Y0121950D01*
X0024881Y0121143D01*
X0024087Y0121937D01*
X0020339Y0125686D01*
X0018571Y0126418D01*
X0016968Y0128021D01*
X0016681Y0128714D01*
X0016504Y0128367D01*
X0015995Y0127667D01*
X0015383Y0127055D01*
X0014683Y0126546D01*
X0013911Y0126153D01*
X0013088Y0125885D01*
X0012233Y0125750D01*
X0012000Y0125750D01*
X0012000Y0131050D01*
X0011600Y0131050D01*
X0006300Y0131050D01*
X0006300Y0130817D01*
X0006435Y0129962D01*
X0006703Y0129139D01*
X0007096Y0128367D01*
X0007605Y0127667D01*
X0008217Y0127055D01*
X0008917Y0126546D01*
X0009689Y0126153D01*
X0010512Y0125885D01*
X0011367Y0125750D01*
X0011600Y0125750D01*
X0011600Y0131050D01*
X0011600Y0131450D01*
X0011600Y0136750D01*
X0011367Y0136750D01*
X0010512Y0136615D01*
X0009689Y0136347D01*
X0008917Y0135954D01*
X0008217Y0135445D01*
X0007605Y0134833D01*
X0007096Y0134133D01*
X0006703Y0133361D01*
X0006435Y0132538D01*
X0006300Y0131683D01*
X0006300Y0131450D01*
X0011600Y0131450D01*
X0012000Y0131450D01*
X0012000Y0136750D01*
X0012233Y0136750D01*
X0013088Y0136615D01*
X0013911Y0136347D01*
X0014683Y0135954D01*
X0015383Y0135445D01*
X0015995Y0134833D01*
X0016504Y0134133D01*
X0016681Y0133786D01*
X0016968Y0134479D01*
X0018571Y0136082D01*
X0020666Y0136950D01*
X0022934Y0136950D01*
X0025029Y0136082D01*
X0026632Y0134479D01*
X0026800Y0134074D01*
X0026968Y0134479D01*
X0028571Y0136082D01*
X0030666Y0136950D01*
X0032934Y0136950D01*
X0035029Y0136082D01*
X0036632Y0134479D01*
X0037500Y0132384D01*
X0037500Y0130116D01*
X0036632Y0128021D01*
X0035561Y0126950D01*
X0044522Y0126950D01*
X0045698Y0126463D01*
X0045698Y0126463D01*
X0046406Y0126170D01*
X0050637Y0121938D01*
X0050666Y0121950D01*
X0052934Y0121950D01*
X0055029Y0121082D01*
X0056632Y0119479D01*
X0057500Y0117384D01*
X0057500Y0115116D01*
X0056632Y0113021D01*
X0055029Y0111418D01*
X0054624Y0111250D01*
X0055029Y0111082D01*
X0056632Y0109479D01*
X0057500Y0107384D01*
X0057500Y0105116D01*
X0056632Y0103021D01*
X0055029Y0101418D01*
X0054624Y0101250D01*
X0055029Y0101082D01*
X0056632Y0099479D01*
X0057500Y0097384D01*
X0057500Y0095116D01*
X0056632Y0093021D01*
X0055029Y0091418D01*
X0054624Y0091250D01*
X0055029Y0091082D01*
X0056632Y0089479D01*
X0057500Y0087384D01*
X0057500Y0085116D01*
X0056632Y0083021D01*
X0055029Y0081418D01*
X0054624Y0081250D01*
X0055029Y0081082D01*
X0056632Y0079479D01*
X0057500Y0077384D01*
X0057500Y0075116D01*
X0056632Y0073021D01*
X0055029Y0071418D01*
X0054624Y0071250D01*
X0055029Y0071082D01*
X0056632Y0069479D01*
X0057500Y0067384D01*
X0057500Y0065116D01*
X0056632Y0063021D01*
X0055029Y0061418D01*
X0054336Y0061131D01*
X0054683Y0060954D01*
X0055383Y0060445D01*
X0055995Y0059833D01*
X0056504Y0059133D01*
X0056897Y0058361D01*
X0057165Y0057538D01*
X0057300Y0056683D01*
X0057300Y0056450D01*
X0052000Y0056450D01*
X0052000Y0056050D01*
X0057300Y0056050D01*
X0057300Y0055817D01*
X0057165Y0054962D01*
X0056897Y0054139D01*
X0056504Y0053367D01*
X0055995Y0052667D01*
X0055383Y0052055D01*
X0054683Y0051546D01*
X0054336Y0051369D01*
X0055029Y0051082D01*
X0055861Y0050250D01*
X0067643Y0050250D01*
X0115300Y0097907D01*
X0115300Y0121830D01*
X0116061Y0123668D01*
X0116061Y0123668D01*
X0116202Y0123809D01*
X0116202Y0123809D01*
X0116838Y0124445D01*
X0117327Y0124934D01*
X0117327Y0124934D01*
X0140909Y0148516D01*
X0142034Y0149641D01*
X0143504Y0150250D01*
X0177380Y0150250D01*
X0179218Y0149489D01*
X0179218Y0149489D01*
X0179359Y0149348D01*
X0179359Y0149348D01*
X0180006Y0148701D01*
X0180484Y0148223D01*
X0180484Y0148223D01*
X0184066Y0144641D01*
X0185191Y0143516D01*
X0185800Y0142046D01*
X0185800Y0135311D01*
X0186632Y0134479D01*
X0187500Y0132384D01*
X0187500Y0130116D01*
X0186632Y0128021D01*
X0185029Y0126418D01*
X0182934Y0125550D01*
X0180666Y0125550D01*
X0178571Y0126418D01*
X0176968Y0128021D01*
X0176800Y0128426D01*
X0176632Y0128021D01*
X0175029Y0126418D01*
X0172934Y0125550D01*
X0170666Y0125550D01*
X0168571Y0126418D01*
X0166968Y0128021D01*
X0166681Y0128714D01*
X0166504Y0128367D01*
X0165995Y0127667D01*
X0165383Y0127055D01*
X0164683Y0126546D01*
X0163911Y0126153D01*
X0163088Y0125885D01*
X0162233Y0125750D01*
X0162000Y0125750D01*
X0162000Y0131050D01*
X0161600Y0131050D01*
X0161600Y0125750D01*
X0161367Y0125750D01*
X0160512Y0125885D01*
X0159689Y0126153D01*
X0158917Y0126546D01*
X0158217Y0127055D01*
X0157605Y0127667D01*
X0157096Y0128367D01*
X0156703Y0129139D01*
X0156435Y0129962D01*
X0156300Y0130817D01*
X0156300Y0131050D01*
X0161600Y0131050D01*
X0161600Y0131450D01*
X0161600Y0136750D01*
X0161367Y0136750D01*
X0160512Y0136615D01*
X0159689Y0136347D01*
X0158917Y0135954D01*
X0158217Y0135445D01*
X0157605Y0134833D01*
X0157096Y0134133D01*
X0156703Y0133361D01*
X0156435Y0132538D01*
X0156300Y0131683D01*
X0156300Y0131450D01*
X0161600Y0131450D01*
X0162000Y0131450D01*
X0162000Y0136750D01*
X0162233Y0136750D01*
X0163088Y0136615D01*
X0163911Y0136347D01*
X0164683Y0135954D01*
X0165383Y0135445D01*
X0165995Y0134833D01*
X0166504Y0134133D01*
X0166681Y0133786D01*
X0166968Y0134479D01*
X0168571Y0136082D01*
X0170666Y0136950D01*
X0172934Y0136950D01*
X0175029Y0136082D01*
X0176632Y0134479D01*
X0176800Y0134074D01*
X0176968Y0134479D01*
X0177800Y0135311D01*
X0177800Y0139593D01*
X0175143Y0142250D01*
X0145957Y0142250D01*
X0123300Y0119593D01*
X0123300Y0095454D01*
X0122691Y0093984D01*
X0121566Y0092859D01*
X0072984Y0044277D01*
X0072984Y0044277D01*
X0072457Y0043750D01*
X0071859Y0043152D01*
X0071859Y0043152D01*
X0071718Y0043011D01*
X0071718Y0043011D01*
X0069880Y0042250D01*
X0055861Y0042250D01*
X0055029Y0041418D01*
X0052934Y0040550D01*
X0050666Y0040550D01*
X0048571Y0041418D01*
X0046885Y0043220D02*
X0036600Y0043220D01*
X0036600Y0044819D02*
X0046223Y0044819D01*
X0046100Y0046417D02*
X0032000Y0046417D01*
X0032000Y0048016D02*
X0031600Y0048016D01*
X0031600Y0049614D02*
X0032000Y0049614D01*
X0032000Y0051213D02*
X0031600Y0051213D01*
X0031600Y0052811D02*
X0032000Y0052811D01*
X0035027Y0052811D02*
X0047500Y0052811D01*
X0046615Y0054410D02*
X0004300Y0054410D01*
X0004300Y0056008D02*
X0046300Y0056008D01*
X0046458Y0057607D02*
X0004300Y0057607D01*
X0004300Y0059205D02*
X0047149Y0059205D01*
X0048711Y0060804D02*
X0004300Y0060804D01*
X0004300Y0062402D02*
X0047587Y0062402D01*
X0046562Y0064001D02*
X0004300Y0064001D01*
X0004300Y0065599D02*
X0046100Y0065599D01*
X0046100Y0067198D02*
X0037269Y0067198D01*
X0037300Y0068796D02*
X0046685Y0068796D01*
X0047884Y0070395D02*
X0037300Y0070395D01*
X0037300Y0071993D02*
X0047996Y0071993D01*
X0046731Y0073592D02*
X0037300Y0073592D01*
X0037299Y0075190D02*
X0046100Y0075190D01*
X0046100Y0076789D02*
X0035400Y0076789D01*
X0036784Y0078387D02*
X0046516Y0078387D01*
X0047475Y0079986D02*
X0037446Y0079986D01*
X0037500Y0081584D02*
X0048404Y0081584D01*
X0046901Y0083183D02*
X0037169Y0083183D01*
X0036329Y0084782D02*
X0046239Y0084782D01*
X0046100Y0086380D02*
X0034938Y0086380D01*
X0036590Y0087979D02*
X0046346Y0087979D01*
X0047066Y0089577D02*
X0037277Y0089577D01*
X0037500Y0091176D02*
X0048797Y0091176D01*
X0047215Y0092774D02*
X0037338Y0092774D01*
X0036676Y0094373D02*
X0046408Y0094373D01*
X0046100Y0095971D02*
X0035140Y0095971D01*
X0036181Y0097570D02*
X0046177Y0097570D01*
X0046839Y0099168D02*
X0037107Y0099168D01*
X0037500Y0100767D02*
X0048256Y0100767D01*
X0047624Y0102365D02*
X0037500Y0102365D01*
X0036846Y0103964D02*
X0046577Y0103964D01*
X0048886Y0108750D02*
X0048946Y0108748D01*
X0049007Y0108743D01*
X0049066Y0108734D01*
X0049125Y0108721D01*
X0049184Y0108705D01*
X0049241Y0108685D01*
X0049296Y0108662D01*
X0049351Y0108635D01*
X0049403Y0108606D01*
X0049454Y0108573D01*
X0049503Y0108537D01*
X0049549Y0108499D01*
X0049593Y0108457D01*
X0048039Y0111950D02*
X0035561Y0111950D01*
X0036632Y0113021D01*
X0037500Y0115116D01*
X0037500Y0117384D01*
X0036632Y0119479D01*
X0035561Y0120550D01*
X0042975Y0120550D01*
X0046112Y0117413D01*
X0046100Y0117384D01*
X0046100Y0115116D01*
X0046968Y0113021D01*
X0048039Y0111950D01*
X0048033Y0111956D02*
X0035567Y0111956D01*
X0036853Y0113555D02*
X0046747Y0113555D01*
X0046100Y0115153D02*
X0037500Y0115153D01*
X0037500Y0116752D02*
X0046100Y0116752D01*
X0045174Y0118350D02*
X0037100Y0118350D01*
X0036162Y0119949D02*
X0043576Y0119949D01*
X0044593Y0123457D02*
X0044549Y0123499D01*
X0044503Y0123537D01*
X0044454Y0123573D01*
X0044403Y0123606D01*
X0044351Y0123635D01*
X0044296Y0123662D01*
X0044241Y0123685D01*
X0044184Y0123705D01*
X0044125Y0123721D01*
X0044066Y0123734D01*
X0044007Y0123743D01*
X0043946Y0123748D01*
X0043886Y0123750D01*
X0045988Y0126343D02*
X0118736Y0126343D01*
X0120334Y0127941D02*
X0036552Y0127941D01*
X0037261Y0129540D02*
X0121933Y0129540D01*
X0123532Y0131138D02*
X0037500Y0131138D01*
X0037354Y0132737D02*
X0125130Y0132737D01*
X0126729Y0134335D02*
X0036692Y0134335D01*
X0035177Y0135934D02*
X0128327Y0135934D01*
X0129926Y0137532D02*
X0004372Y0137532D01*
X0004300Y0135934D02*
X0008890Y0135934D01*
X0007243Y0134335D02*
X0004300Y0134335D01*
X0004300Y0132737D02*
X0006500Y0132737D01*
X0004300Y0131138D02*
X0011600Y0131138D01*
X0011600Y0129540D02*
X0012000Y0129540D01*
X0012000Y0127941D02*
X0011600Y0127941D01*
X0011600Y0126343D02*
X0012000Y0126343D01*
X0014284Y0126343D02*
X0018752Y0126343D01*
X0017048Y0127941D02*
X0016194Y0127941D01*
X0021280Y0124744D02*
X0004300Y0124744D01*
X0004300Y0123146D02*
X0022879Y0123146D01*
X0023906Y0121547D02*
X0024477Y0121547D01*
X0019694Y0121547D02*
X0013295Y0121547D01*
X0012000Y0121547D02*
X0011600Y0121547D01*
X0010305Y0121547D02*
X0004300Y0121547D01*
X0004300Y0119949D02*
X0007721Y0119949D01*
X0006699Y0118350D02*
X0004300Y0118350D01*
X0004300Y0116752D02*
X0006311Y0116752D01*
X0006405Y0115153D02*
X0004300Y0115153D01*
X0004300Y0113555D02*
X0007001Y0113555D01*
X0008353Y0111956D02*
X0004300Y0111956D01*
X0004300Y0110358D02*
X0020667Y0110358D01*
X0022265Y0108759D02*
X0004300Y0108759D01*
X0004300Y0107161D02*
X0023864Y0107161D01*
X0026134Y0105562D02*
X0020549Y0105562D01*
X0020029Y0106082D02*
X0017934Y0106950D01*
X0015666Y0106950D01*
X0013571Y0106082D01*
X0011968Y0104479D01*
X0011100Y0102384D01*
X0011100Y0100116D01*
X0011968Y0098021D01*
X0013571Y0096418D01*
X0013976Y0096250D01*
X0013571Y0096082D01*
X0011968Y0094479D01*
X0011100Y0092384D01*
X0011100Y0090116D01*
X0011968Y0088021D01*
X0013571Y0086418D01*
X0013976Y0086250D01*
X0013571Y0086082D01*
X0011968Y0084479D01*
X0011100Y0082384D01*
X0011100Y0080116D01*
X0011968Y0078021D01*
X0013239Y0076750D01*
X0012863Y0076750D01*
X0012405Y0076627D01*
X0011995Y0076390D01*
X0011660Y0076055D01*
X0011423Y0075645D01*
X0011300Y0075187D01*
X0011300Y0071450D01*
X0016600Y0071450D01*
X0016600Y0071050D01*
X0011300Y0071050D01*
X0011300Y0067313D01*
X0011423Y0066855D01*
X0011660Y0066445D01*
X0011995Y0066110D01*
X0012405Y0065873D01*
X0012863Y0065750D01*
X0016600Y0065750D01*
X0016600Y0071050D01*
X0017000Y0071050D01*
X0017000Y0071450D01*
X0022300Y0071450D01*
X0022300Y0075187D01*
X0022177Y0075645D01*
X0021940Y0076055D01*
X0021605Y0076390D01*
X0021195Y0076627D01*
X0020737Y0076750D01*
X0020361Y0076750D01*
X0021632Y0078021D01*
X0022500Y0080116D01*
X0022500Y0082384D01*
X0021632Y0084479D01*
X0020029Y0086082D01*
X0019624Y0086250D01*
X0020029Y0086418D01*
X0021632Y0088021D01*
X0022500Y0090116D01*
X0022500Y0092384D01*
X0021632Y0094479D01*
X0020029Y0096082D01*
X0019624Y0096250D01*
X0020029Y0096418D01*
X0021632Y0098021D01*
X0022500Y0100116D01*
X0022500Y0102384D01*
X0021632Y0104479D01*
X0020029Y0106082D01*
X0021846Y0103964D02*
X0026754Y0103964D01*
X0026100Y0102365D02*
X0022500Y0102365D01*
X0022500Y0100767D02*
X0026100Y0100767D01*
X0026493Y0099168D02*
X0022107Y0099168D01*
X0021181Y0097570D02*
X0027419Y0097570D01*
X0028460Y0095971D02*
X0020140Y0095971D01*
X0021676Y0094373D02*
X0026924Y0094373D01*
X0026262Y0092774D02*
X0022338Y0092774D01*
X0022500Y0091176D02*
X0026100Y0091176D01*
X0026323Y0089577D02*
X0022277Y0089577D01*
X0021590Y0087979D02*
X0027010Y0087979D01*
X0028662Y0086380D02*
X0019938Y0086380D01*
X0021329Y0084782D02*
X0027270Y0084782D01*
X0026431Y0083183D02*
X0022169Y0083183D01*
X0022500Y0081584D02*
X0026100Y0081584D01*
X0026154Y0079986D02*
X0022446Y0079986D01*
X0021784Y0078387D02*
X0026816Y0078387D01*
X0028200Y0076789D02*
X0020400Y0076789D01*
X0022299Y0075190D02*
X0026301Y0075190D01*
X0026300Y0073592D02*
X0022300Y0073592D01*
X0022300Y0071993D02*
X0026300Y0071993D01*
X0026300Y0070395D02*
X0022300Y0070395D01*
X0022300Y0071050D02*
X0017000Y0071050D01*
X0017000Y0065750D01*
X0020737Y0065750D01*
X0021195Y0065873D01*
X0021605Y0066110D01*
X0021940Y0066445D01*
X0022177Y0066855D01*
X0022300Y0067313D01*
X0022300Y0071050D01*
X0022300Y0068796D02*
X0026300Y0068796D01*
X0026331Y0067198D02*
X0022269Y0067198D01*
X0017000Y0067198D02*
X0016600Y0067198D01*
X0016600Y0068796D02*
X0017000Y0068796D01*
X0017000Y0070395D02*
X0016600Y0070395D01*
X0011300Y0070395D02*
X0004300Y0070395D01*
X0004300Y0071993D02*
X0011300Y0071993D01*
X0011300Y0073592D02*
X0004300Y0073592D01*
X0004300Y0075190D02*
X0011301Y0075190D01*
X0013200Y0076789D02*
X0004300Y0076789D01*
X0004300Y0078387D02*
X0011816Y0078387D01*
X0011154Y0079986D02*
X0004300Y0079986D01*
X0004300Y0081584D02*
X0011100Y0081584D01*
X0011431Y0083183D02*
X0004300Y0083183D01*
X0004300Y0084782D02*
X0012270Y0084782D01*
X0013662Y0086380D02*
X0004300Y0086380D01*
X0004300Y0087979D02*
X0012010Y0087979D01*
X0011323Y0089577D02*
X0004300Y0089577D01*
X0004300Y0091176D02*
X0011100Y0091176D01*
X0011262Y0092774D02*
X0004300Y0092774D01*
X0004300Y0094373D02*
X0011924Y0094373D01*
X0013460Y0095971D02*
X0004300Y0095971D01*
X0004300Y0097570D02*
X0012419Y0097570D01*
X0011493Y0099168D02*
X0004300Y0099168D01*
X0004300Y0100767D02*
X0011100Y0100767D01*
X0011100Y0102365D02*
X0004300Y0102365D01*
X0004300Y0103964D02*
X0011754Y0103964D01*
X0013051Y0105562D02*
X0004300Y0105562D01*
X0011600Y0111956D02*
X0012000Y0111956D01*
X0012000Y0113555D02*
X0011600Y0113555D01*
X0011600Y0115153D02*
X0012000Y0115153D01*
X0012000Y0116752D02*
X0011600Y0116752D01*
X0011600Y0118350D02*
X0012000Y0118350D01*
X0012000Y0119949D02*
X0011600Y0119949D01*
X0015879Y0119949D02*
X0017438Y0119949D01*
X0021800Y0114164D02*
X0021802Y0114104D01*
X0021807Y0114043D01*
X0021816Y0113984D01*
X0021829Y0113925D01*
X0021845Y0113866D01*
X0021865Y0113809D01*
X0021888Y0113754D01*
X0021915Y0113699D01*
X0021944Y0113647D01*
X0021977Y0113596D01*
X0022013Y0113547D01*
X0022051Y0113501D01*
X0022093Y0113457D01*
X0018033Y0111956D02*
X0015247Y0111956D01*
X0016599Y0113555D02*
X0016747Y0113555D01*
X0009316Y0126343D02*
X0004300Y0126343D01*
X0004300Y0127941D02*
X0007406Y0127941D01*
X0006573Y0129540D02*
X0004300Y0129540D01*
X0011600Y0132737D02*
X0012000Y0132737D01*
X0012000Y0134335D02*
X0011600Y0134335D01*
X0011600Y0135934D02*
X0012000Y0135934D01*
X0014710Y0135934D02*
X0018423Y0135934D01*
X0016908Y0134335D02*
X0016357Y0134335D01*
X0021800Y0129164D02*
X0021802Y0129104D01*
X0021807Y0129043D01*
X0021816Y0128984D01*
X0021829Y0128925D01*
X0021845Y0128866D01*
X0021865Y0128809D01*
X0021888Y0128754D01*
X0021915Y0128699D01*
X0021944Y0128647D01*
X0021977Y0128596D01*
X0022013Y0128547D01*
X0022051Y0128501D01*
X0022093Y0128457D01*
X0026692Y0134335D02*
X0026908Y0134335D01*
X0028423Y0135934D02*
X0025177Y0135934D01*
X0008148Y0148722D02*
X0141115Y0148722D01*
X0139517Y0147123D02*
X0007220Y0147123D01*
X0006450Y0145525D02*
X0137918Y0145525D01*
X0136320Y0143926D02*
X0005681Y0143926D01*
X0005254Y0142328D02*
X0134721Y0142328D01*
X0133123Y0140729D02*
X0004889Y0140729D01*
X0004524Y0139131D02*
X0131524Y0139131D01*
X0136444Y0132737D02*
X0156500Y0132737D01*
X0157243Y0134335D02*
X0138042Y0134335D01*
X0139641Y0135934D02*
X0158890Y0135934D01*
X0161600Y0135934D02*
X0162000Y0135934D01*
X0162000Y0134335D02*
X0161600Y0134335D01*
X0161600Y0132737D02*
X0162000Y0132737D01*
X0161600Y0131138D02*
X0134845Y0131138D01*
X0133247Y0129540D02*
X0156573Y0129540D01*
X0157406Y0127941D02*
X0131648Y0127941D01*
X0130050Y0126343D02*
X0159316Y0126343D01*
X0161600Y0126343D02*
X0162000Y0126343D01*
X0162000Y0127941D02*
X0161600Y0127941D01*
X0161600Y0129540D02*
X0162000Y0129540D01*
X0164284Y0126343D02*
X0168752Y0126343D01*
X0167048Y0127941D02*
X0166194Y0127941D01*
X0166357Y0134335D02*
X0166908Y0134335D01*
X0168423Y0135934D02*
X0164710Y0135934D01*
X0175177Y0135934D02*
X0177800Y0135934D01*
X0177800Y0137532D02*
X0141239Y0137532D01*
X0142838Y0139131D02*
X0177800Y0139131D01*
X0176664Y0140729D02*
X0144436Y0140729D01*
X0128451Y0124744D02*
X0189300Y0124744D01*
X0189300Y0123146D02*
X0126853Y0123146D01*
X0125254Y0121547D02*
X0139694Y0121547D01*
X0137438Y0119949D02*
X0123656Y0119949D01*
X0123300Y0118350D02*
X0136500Y0118350D01*
X0136100Y0116752D02*
X0123300Y0116752D01*
X0123300Y0115153D02*
X0136100Y0115153D01*
X0136747Y0113555D02*
X0123300Y0113555D01*
X0123300Y0111956D02*
X0138033Y0111956D01*
X0137847Y0110358D02*
X0123300Y0110358D01*
X0123300Y0108759D02*
X0136670Y0108759D01*
X0136100Y0107161D02*
X0123300Y0107161D01*
X0123300Y0105562D02*
X0136100Y0105562D01*
X0136577Y0103964D02*
X0123300Y0103964D01*
X0123300Y0102365D02*
X0137624Y0102365D01*
X0138256Y0100767D02*
X0123300Y0100767D01*
X0123300Y0099168D02*
X0136839Y0099168D01*
X0136177Y0097570D02*
X0123300Y0097570D01*
X0123300Y0095971D02*
X0136100Y0095971D01*
X0136408Y0094373D02*
X0122852Y0094373D01*
X0121481Y0092774D02*
X0137215Y0092774D01*
X0138797Y0091176D02*
X0119882Y0091176D01*
X0118284Y0089577D02*
X0137066Y0089577D01*
X0136346Y0087979D02*
X0116685Y0087979D01*
X0115087Y0086380D02*
X0136100Y0086380D01*
X0136239Y0084782D02*
X0113488Y0084782D01*
X0111890Y0083183D02*
X0136901Y0083183D01*
X0138404Y0081584D02*
X0110291Y0081584D01*
X0108693Y0079986D02*
X0137475Y0079986D01*
X0136516Y0078387D02*
X0107094Y0078387D01*
X0105496Y0076789D02*
X0136100Y0076789D01*
X0136100Y0075190D02*
X0103897Y0075190D01*
X0102299Y0073592D02*
X0136731Y0073592D01*
X0137996Y0071993D02*
X0100700Y0071993D01*
X0099102Y0070395D02*
X0137884Y0070395D01*
X0136685Y0068796D02*
X0097503Y0068796D01*
X0095905Y0067198D02*
X0136100Y0067198D01*
X0136100Y0065599D02*
X0094306Y0065599D01*
X0092708Y0064001D02*
X0136562Y0064001D01*
X0137587Y0062402D02*
X0091109Y0062402D01*
X0089511Y0060804D02*
X0138293Y0060804D01*
X0136855Y0059205D02*
X0087912Y0059205D01*
X0086314Y0057607D02*
X0136192Y0057607D01*
X0136100Y0056008D02*
X0084715Y0056008D01*
X0083117Y0054410D02*
X0136393Y0054410D01*
X0137178Y0052811D02*
X0081518Y0052811D01*
X0079920Y0051213D02*
X0138886Y0051213D01*
X0137103Y0049614D02*
X0078321Y0049614D01*
X0076723Y0048016D02*
X0136362Y0048016D01*
X0136100Y0046417D02*
X0075124Y0046417D01*
X0073526Y0044819D02*
X0136223Y0044819D01*
X0136885Y0043220D02*
X0071927Y0043220D01*
X0068606Y0051213D02*
X0054714Y0051213D01*
X0056100Y0052811D02*
X0070204Y0052811D01*
X0071803Y0054410D02*
X0056985Y0054410D01*
X0057300Y0056008D02*
X0073401Y0056008D01*
X0075000Y0057607D02*
X0057142Y0057607D01*
X0056451Y0059205D02*
X0076598Y0059205D01*
X0078197Y0060804D02*
X0054889Y0060804D01*
X0056013Y0062402D02*
X0079796Y0062402D01*
X0081394Y0064001D02*
X0057038Y0064001D01*
X0057500Y0065599D02*
X0082993Y0065599D01*
X0084591Y0067198D02*
X0057500Y0067198D01*
X0056915Y0068796D02*
X0086190Y0068796D01*
X0087788Y0070395D02*
X0055716Y0070395D01*
X0055604Y0071993D02*
X0089387Y0071993D01*
X0090985Y0073592D02*
X0056869Y0073592D01*
X0057500Y0075190D02*
X0092584Y0075190D01*
X0094182Y0076789D02*
X0057500Y0076789D01*
X0057084Y0078387D02*
X0095781Y0078387D01*
X0097379Y0079986D02*
X0056125Y0079986D01*
X0055196Y0081584D02*
X0098978Y0081584D01*
X0100576Y0083183D02*
X0056699Y0083183D01*
X0057361Y0084782D02*
X0102175Y0084782D01*
X0103773Y0086380D02*
X0057500Y0086380D01*
X0057254Y0087979D02*
X0105372Y0087979D01*
X0106970Y0089577D02*
X0056534Y0089577D01*
X0054803Y0091176D02*
X0108569Y0091176D01*
X0110167Y0092774D02*
X0056385Y0092774D01*
X0057192Y0094373D02*
X0111766Y0094373D01*
X0113364Y0095971D02*
X0057500Y0095971D01*
X0057423Y0097570D02*
X0114963Y0097570D01*
X0115300Y0099168D02*
X0056761Y0099168D01*
X0055344Y0100767D02*
X0115300Y0100767D01*
X0115300Y0102365D02*
X0055976Y0102365D01*
X0057023Y0103964D02*
X0115300Y0103964D01*
X0115300Y0105562D02*
X0057500Y0105562D01*
X0057500Y0107161D02*
X0115300Y0107161D01*
X0115300Y0108759D02*
X0056930Y0108759D01*
X0055753Y0110358D02*
X0115300Y0110358D01*
X0115300Y0111956D02*
X0055567Y0111956D01*
X0056853Y0113555D02*
X0115300Y0113555D01*
X0115300Y0115153D02*
X0057500Y0115153D01*
X0057500Y0116752D02*
X0115300Y0116752D01*
X0115300Y0118350D02*
X0057100Y0118350D01*
X0056162Y0119949D02*
X0115300Y0119949D01*
X0115300Y0121547D02*
X0053906Y0121547D01*
X0049430Y0123146D02*
X0115845Y0123146D01*
X0117137Y0124744D02*
X0047831Y0124744D01*
X0012592Y0153518D02*
X0181008Y0153518D01*
X0182902Y0151919D02*
X0010698Y0151919D01*
X0009423Y0150320D02*
X0184177Y0150320D01*
X0185452Y0148722D02*
X0179985Y0148722D01*
X0181583Y0147123D02*
X0186380Y0147123D01*
X0187149Y0145525D02*
X0183182Y0145525D01*
X0184780Y0143926D02*
X0187919Y0143926D01*
X0188346Y0142328D02*
X0185683Y0142328D01*
X0185800Y0140729D02*
X0188711Y0140729D01*
X0189076Y0139131D02*
X0185800Y0139131D01*
X0185800Y0137532D02*
X0189228Y0137532D01*
X0189300Y0135934D02*
X0185800Y0135934D01*
X0186692Y0134335D02*
X0189300Y0134335D01*
X0189300Y0132737D02*
X0187354Y0132737D01*
X0187500Y0131138D02*
X0189300Y0131138D01*
X0189300Y0129540D02*
X0187261Y0129540D01*
X0186552Y0127941D02*
X0189300Y0127941D01*
X0189300Y0126343D02*
X0184848Y0126343D01*
X0182934Y0121950D02*
X0180666Y0121950D01*
X0178571Y0121082D01*
X0176968Y0119479D01*
X0176800Y0119074D01*
X0176632Y0119479D01*
X0175029Y0121082D01*
X0172934Y0121950D01*
X0170666Y0121950D01*
X0168571Y0121082D01*
X0166968Y0119479D01*
X0166681Y0118786D01*
X0166504Y0119133D01*
X0165995Y0119833D01*
X0165383Y0120445D01*
X0164683Y0120954D01*
X0163911Y0121347D01*
X0163088Y0121615D01*
X0162233Y0121750D01*
X0162000Y0121750D01*
X0162000Y0116450D01*
X0161600Y0116450D01*
X0161600Y0121750D01*
X0161367Y0121750D01*
X0160512Y0121615D01*
X0159689Y0121347D01*
X0158917Y0120954D01*
X0158217Y0120445D01*
X0157605Y0119833D01*
X0157096Y0119133D01*
X0156703Y0118361D01*
X0156435Y0117538D01*
X0156300Y0116683D01*
X0156300Y0116450D01*
X0161600Y0116450D01*
X0161600Y0116050D01*
X0156300Y0116050D01*
X0156300Y0115817D01*
X0156435Y0114962D01*
X0156703Y0114139D01*
X0157096Y0113367D01*
X0157605Y0112667D01*
X0158217Y0112055D01*
X0158917Y0111546D01*
X0159689Y0111153D01*
X0160512Y0110885D01*
X0161367Y0110750D01*
X0161600Y0110750D01*
X0161600Y0116050D01*
X0162000Y0116050D01*
X0162000Y0110750D01*
X0162233Y0110750D01*
X0163088Y0110885D01*
X0163911Y0111153D01*
X0164683Y0111546D01*
X0165383Y0112055D01*
X0165995Y0112667D01*
X0166504Y0113367D01*
X0166681Y0113714D01*
X0166968Y0113021D01*
X0168571Y0111418D01*
X0170666Y0110550D01*
X0172934Y0110550D01*
X0175029Y0111418D01*
X0176632Y0113021D01*
X0176800Y0113426D01*
X0176968Y0113021D01*
X0178571Y0111418D01*
X0180666Y0110550D01*
X0182934Y0110550D01*
X0185029Y0111418D01*
X0186632Y0113021D01*
X0187500Y0115116D01*
X0187500Y0117384D01*
X0186632Y0119479D01*
X0185029Y0121082D01*
X0182934Y0121950D01*
X0183906Y0121547D02*
X0189300Y0121547D01*
X0189300Y0119949D02*
X0186162Y0119949D01*
X0187100Y0118350D02*
X0189300Y0118350D01*
X0189300Y0116752D02*
X0187500Y0116752D01*
X0187500Y0115153D02*
X0189300Y0115153D01*
X0189300Y0113555D02*
X0186853Y0113555D01*
X0185567Y0111956D02*
X0189300Y0111956D01*
X0189300Y0110358D02*
X0145753Y0110358D01*
X0145567Y0111956D02*
X0158353Y0111956D01*
X0157001Y0113555D02*
X0146853Y0113555D01*
X0147500Y0115153D02*
X0156405Y0115153D01*
X0156311Y0116752D02*
X0147500Y0116752D01*
X0147100Y0118350D02*
X0156699Y0118350D01*
X0157721Y0119949D02*
X0146162Y0119949D01*
X0143906Y0121547D02*
X0160305Y0121547D01*
X0161600Y0121547D02*
X0162000Y0121547D01*
X0163295Y0121547D02*
X0169694Y0121547D01*
X0167438Y0119949D02*
X0165879Y0119949D01*
X0162000Y0119949D02*
X0161600Y0119949D01*
X0161600Y0118350D02*
X0162000Y0118350D01*
X0162000Y0116752D02*
X0161600Y0116752D01*
X0161600Y0115153D02*
X0162000Y0115153D01*
X0162000Y0113555D02*
X0161600Y0113555D01*
X0161600Y0111956D02*
X0162000Y0111956D01*
X0165247Y0111956D02*
X0168033Y0111956D01*
X0166747Y0113555D02*
X0166599Y0113555D01*
X0165222Y0105562D02*
X0168051Y0105562D01*
X0166754Y0103964D02*
X0166590Y0103964D01*
X0162000Y0103964D02*
X0161600Y0103964D01*
X0161600Y0105562D02*
X0162000Y0105562D01*
X0162000Y0102365D02*
X0161600Y0102365D01*
X0158378Y0105562D02*
X0147500Y0105562D01*
X0147500Y0107161D02*
X0189300Y0107161D01*
X0189300Y0108759D02*
X0146930Y0108759D01*
X0147023Y0103964D02*
X0157010Y0103964D01*
X0156408Y0102365D02*
X0145976Y0102365D01*
X0145344Y0100767D02*
X0156308Y0100767D01*
X0156693Y0099168D02*
X0146761Y0099168D01*
X0147423Y0097570D02*
X0157702Y0097570D01*
X0154496Y0095971D02*
X0147500Y0095971D01*
X0147192Y0094373D02*
X0152897Y0094373D01*
X0151299Y0092774D02*
X0146385Y0092774D01*
X0144803Y0091176D02*
X0149700Y0091176D01*
X0148102Y0089577D02*
X0146534Y0089577D01*
X0150042Y0083183D02*
X0157230Y0083183D01*
X0157096Y0083367D02*
X0157605Y0082667D01*
X0158217Y0082055D01*
X0158917Y0081546D01*
X0159689Y0081153D01*
X0160512Y0080885D01*
X0161367Y0080750D01*
X0161600Y0080750D01*
X0161600Y0086050D01*
X0156300Y0086050D01*
X0156300Y0085817D01*
X0156435Y0084962D01*
X0156703Y0084139D01*
X0157096Y0083367D01*
X0156494Y0084782D02*
X0152357Y0084782D01*
X0151406Y0083830D02*
X0151406Y0083830D01*
X0151265Y0083689D02*
X0151265Y0083689D01*
X0153955Y0086380D02*
X0161600Y0086380D01*
X0161600Y0084782D02*
X0162000Y0084782D01*
X0162000Y0083183D02*
X0161600Y0083183D01*
X0161600Y0081584D02*
X0162000Y0081584D01*
X0164736Y0081584D02*
X0168404Y0081584D01*
X0166901Y0083183D02*
X0166370Y0083183D01*
X0163088Y0076615D02*
X0162233Y0076750D01*
X0162000Y0076750D01*
X0162000Y0071450D01*
X0161600Y0071450D01*
X0161600Y0076750D01*
X0161367Y0076750D01*
X0160512Y0076615D01*
X0159689Y0076347D01*
X0158917Y0075954D01*
X0158217Y0075445D01*
X0157605Y0074833D01*
X0157096Y0074133D01*
X0156703Y0073361D01*
X0156435Y0072538D01*
X0156300Y0071683D01*
X0156300Y0071450D01*
X0161600Y0071450D01*
X0161600Y0071050D01*
X0156300Y0071050D01*
X0156300Y0070817D01*
X0156435Y0069962D01*
X0156703Y0069139D01*
X0157096Y0068367D01*
X0157605Y0067667D01*
X0158217Y0067055D01*
X0158917Y0066546D01*
X0159689Y0066153D01*
X0160512Y0065885D01*
X0161367Y0065750D01*
X0161600Y0065750D01*
X0161600Y0071050D01*
X0162000Y0071050D01*
X0162000Y0065750D01*
X0162233Y0065750D01*
X0163088Y0065885D01*
X0163911Y0066153D01*
X0164683Y0066546D01*
X0165383Y0067055D01*
X0165995Y0067667D01*
X0166504Y0068367D01*
X0166681Y0068714D01*
X0166968Y0068021D01*
X0168571Y0066418D01*
X0170666Y0065550D01*
X0172934Y0065550D01*
X0175029Y0066418D01*
X0176632Y0068021D01*
X0176800Y0068426D01*
X0176968Y0068021D01*
X0178571Y0066418D01*
X0180666Y0065550D01*
X0182934Y0065550D01*
X0185029Y0066418D01*
X0186632Y0068021D01*
X0187500Y0070116D01*
X0187500Y0072384D01*
X0186632Y0074479D01*
X0185029Y0076082D01*
X0182934Y0076950D01*
X0180666Y0076950D01*
X0178571Y0076082D01*
X0176968Y0074479D01*
X0176800Y0074074D01*
X0176632Y0074479D01*
X0175029Y0076082D01*
X0172934Y0076950D01*
X0170666Y0076950D01*
X0168571Y0076082D01*
X0166968Y0074479D01*
X0166681Y0073786D01*
X0166504Y0074133D01*
X0165995Y0074833D01*
X0165383Y0075445D01*
X0164683Y0075954D01*
X0163911Y0076347D01*
X0163088Y0076615D01*
X0162000Y0075190D02*
X0161600Y0075190D01*
X0161600Y0073592D02*
X0162000Y0073592D01*
X0162000Y0071993D02*
X0161600Y0071993D01*
X0161600Y0070395D02*
X0162000Y0070395D01*
X0162000Y0068796D02*
X0161600Y0068796D01*
X0161600Y0067198D02*
X0162000Y0067198D01*
X0165526Y0067198D02*
X0167791Y0067198D01*
X0170547Y0065599D02*
X0154476Y0065599D01*
X0156075Y0064001D02*
X0189300Y0064001D01*
X0189300Y0065599D02*
X0183053Y0065599D01*
X0180547Y0065599D02*
X0173053Y0065599D01*
X0175809Y0067198D02*
X0177791Y0067198D01*
X0185809Y0067198D02*
X0189300Y0067198D01*
X0189300Y0068796D02*
X0186953Y0068796D01*
X0187500Y0070395D02*
X0189300Y0070395D01*
X0189300Y0071993D02*
X0187500Y0071993D01*
X0187000Y0073592D02*
X0189300Y0073592D01*
X0189300Y0075190D02*
X0185921Y0075190D01*
X0183323Y0076789D02*
X0189300Y0076789D01*
X0189300Y0078387D02*
X0147084Y0078387D01*
X0147500Y0076789D02*
X0170277Y0076789D01*
X0167679Y0075190D02*
X0165638Y0075190D01*
X0157962Y0075190D02*
X0147500Y0075190D01*
X0146869Y0073592D02*
X0156820Y0073592D01*
X0156349Y0071993D02*
X0145604Y0071993D01*
X0145716Y0070395D02*
X0156367Y0070395D01*
X0156877Y0068796D02*
X0151100Y0068796D01*
X0150229Y0069157D02*
X0150229Y0069157D01*
X0152878Y0067198D02*
X0158074Y0067198D01*
X0157673Y0062402D02*
X0189300Y0062402D01*
X0189300Y0060804D02*
X0159272Y0060804D01*
X0160870Y0059205D02*
X0189300Y0059205D01*
X0189300Y0057607D02*
X0162469Y0057607D01*
X0164067Y0056008D02*
X0189300Y0056008D01*
X0189300Y0036826D02*
X0004300Y0036826D01*
X0004300Y0035228D02*
X0019647Y0035228D01*
X0017418Y0033629D02*
X0004300Y0033629D01*
X0004300Y0032031D02*
X0016492Y0032031D01*
X0016100Y0030432D02*
X0004346Y0030432D01*
X0004514Y0028834D02*
X0016100Y0028834D01*
X0016100Y0027235D02*
X0004879Y0027235D01*
X0005244Y0025637D02*
X0016100Y0025637D01*
X0016100Y0024038D02*
X0005972Y0024038D01*
X0006741Y0022440D02*
X0016100Y0022440D01*
X0016338Y0020841D02*
X0007858Y0020841D01*
X0009133Y0019243D02*
X0017046Y0019243D01*
X0018749Y0017644D02*
X0010970Y0017644D01*
X0013293Y0016046D02*
X0180307Y0016046D01*
X0168749Y0017644D02*
X0164851Y0017644D01*
X0166554Y0019243D02*
X0167046Y0019243D01*
X0158749Y0017644D02*
X0104991Y0017644D01*
X0105265Y0017843D02*
X0105877Y0018455D01*
X0106386Y0019156D01*
X0106779Y0019927D01*
X0107046Y0020750D01*
X0107182Y0021605D01*
X0107182Y0025438D01*
X0101982Y0025438D01*
X0101982Y0016538D01*
X0102115Y0016538D01*
X0102970Y0016674D01*
X0103793Y0016941D01*
X0104565Y0017334D01*
X0105265Y0017843D01*
X0106430Y0019243D02*
X0157046Y0019243D01*
X0156338Y0020841D02*
X0107061Y0020841D01*
X0107182Y0022440D02*
X0156100Y0022440D01*
X0156100Y0024038D02*
X0107182Y0024038D01*
X0107182Y0026038D02*
X0107182Y0029871D01*
X0107046Y0030726D01*
X0106779Y0031549D01*
X0106386Y0032321D01*
X0105877Y0033021D01*
X0105265Y0033633D01*
X0104565Y0034142D01*
X0103793Y0034535D01*
X0102970Y0034803D01*
X0102115Y0034938D01*
X0101982Y0034938D01*
X0101982Y0026038D01*
X0107182Y0026038D01*
X0107182Y0027235D02*
X0156100Y0027235D01*
X0156100Y0025637D02*
X0101982Y0025637D01*
X0101982Y0025438D02*
X0101982Y0026038D01*
X0101382Y0026038D01*
X0101382Y0034938D01*
X0101249Y0034938D01*
X0100394Y0034803D01*
X0099571Y0034535D01*
X0098799Y0034142D01*
X0098099Y0033633D01*
X0097487Y0033021D01*
X0096978Y0032321D01*
X0096801Y0031974D01*
X0096514Y0032667D01*
X0094911Y0034270D01*
X0092816Y0035138D01*
X0090548Y0035138D01*
X0088453Y0034270D01*
X0086850Y0032667D01*
X0085982Y0030572D01*
X0085982Y0020904D01*
X0086850Y0018809D01*
X0088453Y0017206D01*
X0090548Y0016338D01*
X0092816Y0016338D01*
X0094911Y0017206D01*
X0096514Y0018809D01*
X0096801Y0019502D01*
X0096978Y0019156D01*
X0097487Y0018455D01*
X0098099Y0017843D01*
X0098799Y0017334D01*
X0099571Y0016941D01*
X0100394Y0016674D01*
X0101249Y0016538D01*
X0101382Y0016538D01*
X0101382Y0025438D01*
X0101982Y0025438D01*
X0101982Y0024038D02*
X0101382Y0024038D01*
X0101382Y0022440D02*
X0101982Y0022440D01*
X0101982Y0020841D02*
X0101382Y0020841D01*
X0101382Y0019243D02*
X0101982Y0019243D01*
X0101982Y0017644D02*
X0101382Y0017644D01*
X0098373Y0017644D02*
X0095349Y0017644D01*
X0096694Y0019243D02*
X0096934Y0019243D01*
X0088015Y0017644D02*
X0034851Y0017644D01*
X0036554Y0019243D02*
X0086670Y0019243D01*
X0086008Y0020841D02*
X0037262Y0020841D01*
X0037500Y0022440D02*
X0085982Y0022440D01*
X0085982Y0024038D02*
X0037500Y0024038D01*
X0037500Y0025637D02*
X0085982Y0025637D01*
X0085982Y0027235D02*
X0037500Y0027235D01*
X0037500Y0028834D02*
X0085982Y0028834D01*
X0085982Y0030432D02*
X0037500Y0030432D01*
X0037108Y0032031D02*
X0086586Y0032031D01*
X0087812Y0033629D02*
X0036182Y0033629D01*
X0020384Y0038425D02*
X0013216Y0038425D01*
X0010384Y0038425D02*
X0004300Y0038425D01*
X0004300Y0040023D02*
X0007956Y0040023D01*
X0007062Y0041622D02*
X0004300Y0041622D01*
X0004300Y0043220D02*
X0006800Y0043220D01*
X0006800Y0044819D02*
X0004300Y0044819D01*
X0004300Y0046417D02*
X0006800Y0046417D01*
X0006800Y0048016D02*
X0004300Y0048016D01*
X0004300Y0049614D02*
X0006800Y0049614D01*
X0007201Y0051213D02*
X0004300Y0051213D01*
X0004300Y0052811D02*
X0008290Y0052811D01*
X0015310Y0052811D02*
X0018290Y0052811D01*
X0017201Y0051213D02*
X0016399Y0051213D01*
X0016800Y0049614D02*
X0016800Y0049614D01*
X0016800Y0048016D02*
X0016800Y0048016D01*
X0016800Y0046417D02*
X0016800Y0046417D01*
X0016800Y0044819D02*
X0016800Y0044819D01*
X0016800Y0043220D02*
X0016800Y0043220D01*
X0016537Y0041622D02*
X0017062Y0041622D01*
X0017956Y0040023D02*
X0015644Y0040023D01*
X0026800Y0048016D02*
X0027000Y0048016D01*
X0027000Y0049614D02*
X0026800Y0049614D01*
X0026399Y0051213D02*
X0027413Y0051213D01*
X0028573Y0052811D02*
X0025310Y0052811D01*
X0036187Y0051213D02*
X0048886Y0051213D01*
X0047103Y0049614D02*
X0036600Y0049614D01*
X0036600Y0048016D02*
X0046362Y0048016D01*
X0055233Y0041622D02*
X0138367Y0041622D01*
X0145233Y0041622D02*
X0157062Y0041622D01*
X0156800Y0043220D02*
X0146715Y0043220D01*
X0147377Y0044819D02*
X0156800Y0044819D01*
X0156800Y0046417D02*
X0147500Y0046417D01*
X0147238Y0048016D02*
X0156800Y0048016D01*
X0156800Y0049614D02*
X0146497Y0049614D01*
X0144714Y0051213D02*
X0157201Y0051213D01*
X0158213Y0052811D02*
X0146422Y0052811D01*
X0147207Y0054410D02*
X0156615Y0054410D01*
X0155016Y0056008D02*
X0147500Y0056008D01*
X0147408Y0057607D02*
X0153418Y0057607D01*
X0151819Y0059205D02*
X0146745Y0059205D01*
X0145307Y0060804D02*
X0150221Y0060804D01*
X0148622Y0062402D02*
X0146013Y0062402D01*
X0148886Y0066250D02*
X0148946Y0066248D01*
X0149007Y0066243D01*
X0149066Y0066234D01*
X0149125Y0066221D01*
X0149184Y0066205D01*
X0149241Y0066185D01*
X0149296Y0066162D01*
X0149351Y0066135D01*
X0149403Y0066106D01*
X0149454Y0066073D01*
X0149503Y0066037D01*
X0149549Y0065999D01*
X0149593Y0065957D01*
X0146125Y0079986D02*
X0189300Y0079986D01*
X0189300Y0081584D02*
X0185196Y0081584D01*
X0186699Y0083183D02*
X0189300Y0083183D01*
X0189300Y0084782D02*
X0187361Y0084782D01*
X0187500Y0086380D02*
X0189300Y0086380D01*
X0189300Y0087979D02*
X0187254Y0087979D01*
X0186534Y0089577D02*
X0189300Y0089577D01*
X0189300Y0091176D02*
X0184803Y0091176D01*
X0189300Y0092774D02*
X0172301Y0092774D01*
X0170703Y0094373D02*
X0189300Y0094373D01*
X0189300Y0095971D02*
X0183950Y0095971D01*
X0186181Y0097570D02*
X0189300Y0097570D01*
X0189300Y0099168D02*
X0187107Y0099168D01*
X0187500Y0100767D02*
X0189300Y0100767D01*
X0189300Y0102365D02*
X0187500Y0102365D01*
X0186846Y0103964D02*
X0189300Y0103964D01*
X0189300Y0105562D02*
X0185549Y0105562D01*
X0178051Y0105562D02*
X0175549Y0105562D01*
X0175567Y0111956D02*
X0178033Y0111956D01*
X0177438Y0119949D02*
X0176162Y0119949D01*
X0173906Y0121547D02*
X0179694Y0121547D01*
X0178752Y0126343D02*
X0174848Y0126343D01*
X0176552Y0127941D02*
X0177048Y0127941D01*
X0176908Y0134335D02*
X0176692Y0134335D01*
X0179003Y0155116D02*
X0014597Y0155116D01*
X0017764Y0156715D02*
X0175836Y0156715D01*
X0170614Y0158313D02*
X0022986Y0158313D01*
X0031600Y0070395D02*
X0032000Y0070395D01*
X0032000Y0068796D02*
X0031600Y0068796D01*
X0031600Y0067198D02*
X0032000Y0067198D01*
X0011331Y0067198D02*
X0004300Y0067198D01*
X0004300Y0068796D02*
X0011300Y0068796D01*
X0026554Y0019243D02*
X0027046Y0019243D01*
X0028749Y0017644D02*
X0024851Y0017644D01*
X0095552Y0033629D02*
X0098095Y0033629D01*
X0096830Y0032031D02*
X0096778Y0032031D01*
X0101382Y0032031D02*
X0101982Y0032031D01*
X0101982Y0033629D02*
X0101382Y0033629D01*
X0101382Y0030432D02*
X0101982Y0030432D01*
X0101982Y0028834D02*
X0101382Y0028834D01*
X0101382Y0027235D02*
X0101982Y0027235D01*
X0107182Y0028834D02*
X0156100Y0028834D01*
X0156100Y0030432D02*
X0107093Y0030432D01*
X0106534Y0032031D02*
X0156492Y0032031D01*
X0157418Y0033629D02*
X0105269Y0033629D01*
X0145196Y0081584D02*
X0158864Y0081584D01*
X0156579Y0087979D02*
X0155554Y0087979D01*
X0157153Y0089577D02*
X0157419Y0089577D01*
X0166386Y0093750D02*
X0166446Y0093748D01*
X0166507Y0093743D01*
X0166566Y0093734D01*
X0166625Y0093721D01*
X0166684Y0093705D01*
X0166741Y0093685D01*
X0166796Y0093662D01*
X0166851Y0093635D01*
X0166903Y0093606D01*
X0166954Y0093573D01*
X0167003Y0093537D01*
X0167049Y0093499D01*
X0167093Y0093457D01*
X0169104Y0095971D02*
X0169650Y0095971D01*
X0167729Y0096657D02*
X0167729Y0096657D01*
X0167419Y0097570D02*
X0165898Y0097570D01*
X0173950Y0095971D02*
X0179650Y0095971D01*
X0177419Y0097570D02*
X0176181Y0097570D01*
X0174803Y0091176D02*
X0178797Y0091176D01*
X0177066Y0089577D02*
X0176534Y0089577D01*
X0176699Y0083183D02*
X0176901Y0083183D01*
X0178404Y0081584D02*
X0175196Y0081584D01*
X0173323Y0076789D02*
X0180277Y0076789D01*
X0177679Y0075190D02*
X0175921Y0075190D01*
D16*
X0149300Y0093750D03*
X0151800Y0116250D03*
X0141800Y0131250D03*
X0111800Y0121250D03*
X0111800Y0101250D03*
X0091800Y0086250D03*
X0111800Y0076250D03*
X0091800Y0048750D03*
X0056800Y0018750D03*
X0044300Y0038750D03*
X0006800Y0031250D03*
X0006800Y0096250D03*
X0041800Y0101250D03*
X0044300Y0113750D03*
X0071800Y0096250D03*
X0081800Y0121250D03*
X0081800Y0141250D03*
X0111800Y0141250D03*
X0021800Y0146250D03*
X0131800Y0036250D03*
X0151800Y0036250D03*
X0136800Y0016250D03*
X0186800Y0031250D03*
D17*
X0119300Y0096250D02*
X0119300Y0120836D01*
X0119593Y0121543D02*
X0144300Y0146250D01*
X0176386Y0146250D01*
X0177093Y0145957D02*
X0181800Y0141250D01*
X0181800Y0131250D01*
X0177093Y0145957D02*
X0177049Y0145999D01*
X0177003Y0146037D01*
X0176954Y0146073D01*
X0176903Y0146106D01*
X0176851Y0146135D01*
X0176796Y0146162D01*
X0176741Y0146185D01*
X0176684Y0146205D01*
X0176625Y0146221D01*
X0176566Y0146234D01*
X0176507Y0146243D01*
X0176446Y0146248D01*
X0176386Y0146250D01*
X0119593Y0121543D02*
X0119551Y0121499D01*
X0119513Y0121453D01*
X0119477Y0121404D01*
X0119444Y0121353D01*
X0119415Y0121301D01*
X0119388Y0121246D01*
X0119365Y0121191D01*
X0119345Y0121134D01*
X0119329Y0121075D01*
X0119316Y0121016D01*
X0119307Y0120957D01*
X0119302Y0120896D01*
X0119300Y0120836D01*
X0119300Y0096250D02*
X0069593Y0046543D01*
X0068886Y0046250D02*
X0051800Y0046250D01*
X0068886Y0046250D02*
X0068946Y0046252D01*
X0069007Y0046257D01*
X0069066Y0046266D01*
X0069125Y0046279D01*
X0069184Y0046295D01*
X0069241Y0046315D01*
X0069296Y0046338D01*
X0069351Y0046365D01*
X0069403Y0046394D01*
X0069454Y0046427D01*
X0069503Y0046463D01*
X0069549Y0046501D01*
X0069593Y0046543D01*
D18*
X0051800Y0106250D02*
X0049593Y0108457D01*
X0048886Y0108750D02*
X0026800Y0108750D01*
X0022093Y0113457D01*
X0021800Y0114164D02*
X0021800Y0116250D01*
X0026800Y0123750D02*
X0043886Y0123750D01*
X0044593Y0123457D02*
X0051800Y0116250D01*
X0026800Y0123750D02*
X0022093Y0128457D01*
X0021800Y0129164D02*
X0021800Y0131250D01*
X0141800Y0086250D02*
X0148886Y0086250D01*
X0149593Y0086543D02*
X0156800Y0093750D01*
X0166386Y0093750D01*
X0167093Y0093457D02*
X0171800Y0088750D01*
X0171800Y0086250D01*
X0149593Y0086543D02*
X0149549Y0086501D01*
X0149503Y0086463D01*
X0149454Y0086427D01*
X0149403Y0086394D01*
X0149351Y0086365D01*
X0149296Y0086338D01*
X0149241Y0086315D01*
X0149184Y0086295D01*
X0149125Y0086279D01*
X0149066Y0086266D01*
X0149007Y0086257D01*
X0148946Y0086252D01*
X0148886Y0086250D01*
X0148886Y0066250D02*
X0141800Y0066250D01*
X0149593Y0065957D02*
X0161800Y0053750D01*
X0161800Y0046250D01*
M02*
